<?xml version="1.0" standalone="no"?>
<!DOCTYPE svg PUBLIC "-//W3C//DTD SVG 20010904//EN"
 "http://www.w3.org/TR/2001/REC-SVG-20010904/DTD/svg10.dtd">
<svg version="1.0" xmlns="http://www.w3.org/2000/svg"
 width="1673.000000pt" height="1875.000000pt" viewBox="0 0 1673.000000 1875.000000"
 preserveAspectRatio="xMidYMid meet">

<g transform="translate(0.000000,1875.000000) scale(0.100000,-0.100000)"
fill="#000000" stroke="none">
<path d="M8334 15873 c3 -16 2 -35 -3 -43 -8 -11 -12 -9 -20 13 -6 16 -11 33
-11 38 0 13 -53 0 -66 -17 -6 -8 -21 -14 -33 -14 -26 0 -51 -22 -51 -44 0 -22
-75 -22 -84 -1 -3 8 -12 15 -19 15 -8 0 -20 -7 -27 -15 -18 -22 -49 -18 -71 8
l-18 22 -1 -37 c0 -27 -4 -38 -15 -38 -8 0 -15 -7 -15 -15 0 -9 -6 -18 -14
-21 -8 -3 -12 -13 -9 -22 3 -10 1 -13 -4 -7 -26 32 -103 45 -123 20 -14 -17
-70 -21 -70 -5 0 17 -36 11 -64 -11 -22 -17 -27 -18 -32 -5 -4 11 -11 13 -31
5 -13 -5 -45 -9 -71 -9 -42 0 -44 -1 -26 -14 19 -14 19 -15 -1 -21 -11 -4 -33
-14 -50 -23 -16 -9 -39 -15 -51 -14 -12 1 -27 -5 -34 -13 -7 -8 -18 -15 -25
-15 -8 0 -16 -6 -18 -12 -4 -10 -8 -10 -16 2 -5 8 -8 17 -5 21 2 4 0 10 -6 14
-5 3 -10 -1 -10 -10 0 -10 -9 -15 -27 -14 -16 1 -46 -8 -68 -20 -21 -11 -46
-21 -55 -21 -8 -1 -33 -12 -55 -25 -22 -13 -49 -30 -59 -36 -16 -9 -18 -9 -13
5 9 23 0 20 -28 -10 -14 -15 -37 -27 -55 -29 -17 -1 -41 -12 -55 -25 -13 -12
-28 -19 -33 -16 -5 3 -15 -1 -22 -9 -7 -8 -23 -15 -35 -15 -19 0 -22 -4 -18
-22 5 -19 3 -21 -8 -10 -7 6 -18 12 -23 12 -6 0 -4 -5 4 -10 13 -8 13 -10 -2
-10 -9 0 -34 -17 -55 -38 -21 -21 -52 -44 -70 -51 -17 -7 -34 -18 -36 -25 -3
-7 -24 -18 -47 -26 -22 -7 -46 -22 -51 -33 -6 -10 -13 -16 -16 -13 -9 9 -33
-14 -33 -31 0 -17 -25 -45 -33 -36 -8 7 -117 -92 -138 -126 -9 -14 -57 -69
-107 -121 -50 -51 -89 -97 -86 -101 2 -4 -5 -10 -16 -14 -11 -3 -20 -13 -20
-21 0 -8 -28 -42 -62 -77 -35 -34 -98 -99 -141 -144 -42 -44 -84 -83 -92 -86
-7 -3 -22 -21 -31 -39 -9 -18 -43 -62 -76 -98 -32 -36 -58 -72 -58 -80 0 -8
-9 -21 -20 -27 -10 -7 -31 -37 -46 -67 -17 -34 -31 -53 -40 -49 -8 3 -11 -2
-7 -15 5 -22 -86 -184 -123 -219 -13 -12 -24 -26 -24 -31 0 -4 -8 -17 -18 -28
-10 -10 -30 -44 -45 -74 -15 -30 -31 -62 -36 -70 -5 -8 -28 -55 -51 -105 -22
-49 -57 -121 -77 -160 -41 -77 -101 -198 -117 -232 -5 -13 -15 -23 -23 -23 -7
0 -13 -5 -13 -11 0 -5 4 -8 9 -5 14 9 0 -42 -15 -55 -8 -6 -14 -17 -14 -23 0
-6 -11 -45 -25 -86 -39 -115 -105 -379 -98 -395 3 -8 2 -23 -1 -32 -6 -15 -8
-15 -16 -3 -8 12 -10 10 -10 -7 0 -13 5 -23 11 -23 14 0 5 -95 -10 -114 -8
-10 -13 -164 -15 -446 0 -106 14 -323 23 -355 5 -16 12 -96 14 -176 4 -95 11
-159 20 -181 8 -19 18 -55 22 -79 12 -76 67 -261 100 -339 18 -41 41 -94 50
-117 10 -24 24 -43 32 -43 17 0 13 17 -28 112 -16 36 -29 73 -29 82 0 27 17
18 29 -14 5 -16 14 -30 19 -30 10 0 40 -98 46 -155 7 -52 17 -98 26 -110 3 -5
14 -31 24 -58 19 -52 30 -54 39 -7 9 45 23 36 28 -17 7 -83 1 -325 -10 -407
-8 -54 -8 -83 -1 -90 7 -7 10 -4 10 9 0 11 3 15 8 10 5 -6 14 -82 21 -171 13
-170 7 -236 -26 -261 -9 -7 -15 -25 -15 -40 0 -15 -5 -34 -11 -41 -5 -7 -7
-15 -4 -19 3 -3 0 -18 -8 -34 -16 -30 -20 -59 -7 -59 4 0 18 18 32 40 13 22
27 40 32 40 4 0 7 -24 7 -52 0 -29 1 -88 1 -131 1 -43 -4 -93 -10 -111 -6 -18
-11 -113 -12 -212 -2 -278 0 -322 18 -350 17 -25 16 -81 -2 -214 -10 -67 -9
-170 1 -315 5 -60 7 -137 7 -170 -1 -33 1 -76 5 -95 l6 -35 9 35 c4 19 8 62 8
95 1 33 5 67 10 75 18 27 31 -10 26 -68 -4 -44 -2 -54 15 -62 14 -8 19 -22 19
-56 0 -28 -4 -43 -10 -39 -5 3 -10 -1 -10 -10 0 -9 5 -13 10 -10 6 3 10 -4 11
-17 3 -64 8 -87 28 -127 16 -30 20 -52 16 -72 -8 -37 7 -38 33 -2 l20 28 7
-37 c4 -21 2 -45 -4 -57 -8 -14 -8 -21 -1 -21 5 0 10 -9 10 -20 0 -12 12 -31
26 -43 22 -19 26 -33 34 -114 9 -97 14 -113 33 -113 7 0 12 -18 13 -46 1 -25
6 -50 12 -56 8 -8 9 12 5 66 -3 42 -3 76 0 76 3 0 22 -32 42 -72 19 -39 35
-69 35 -65 0 4 -11 50 -25 103 -28 106 -27 137 0 52 10 -29 24 -61 32 -70 19
-21 30 -98 14 -98 -17 0 -13 -65 8 -112 21 -47 45 -132 56 -191 7 -44 25 -40
25 6 0 26 4 33 20 34 11 1 20 -3 20 -8 0 -6 -5 -7 -12 -3 -16 10 -4 -93 16
-131 9 -16 16 -47 16 -67 0 -20 7 -43 15 -52 9 -9 15 -35 16 -68 1 -67 17
-114 18 -53 1 45 9 61 31 60 8 -1 23 5 32 13 13 11 15 20 7 39 -5 13 -9 29 -9
36 0 18 29 -15 33 -38 13 -61 20 -86 28 -91 12 -7 11 -91 -1 -115 -6 -10 -18
-19 -26 -19 -8 0 -61 -46 -118 -103 -82 -82 -110 -117 -139 -178 -20 -41 -37
-79 -37 -83 0 -28 -86 -70 -175 -85 -83 -14 -248 -60 -363 -101 -131 -47 -277
-153 -390 -282 -23 -27 -41 -38 -60 -38 -39 0 -207 -36 -234 -51 -13 -6 -37
-22 -54 -34 -34 -26 -75 -38 -184 -56 -99 -16 -151 -46 -197 -115 -44 -66 -72
-82 -155 -90 -86 -7 -145 -23 -194 -51 -22 -12 -46 -23 -52 -23 -6 0 -30 25
-52 55 -34 46 -46 55 -71 55 -50 0 -81 -44 -110 -153 -15 -60 -30 -67 -145
-67 -120 0 -471 -81 -591 -136 -30 -13 -59 -24 -66 -24 -7 0 -45 -17 -85 -37
-82 -43 -65 -45 -179 27 -31 19 -70 34 -98 38 -47 5 -47 4 -104 -56 -32 -34
-74 -68 -94 -77 -20 -8 -53 -36 -74 -62 -57 -71 -163 -171 -205 -193 -21 -11
-55 -20 -76 -20 -32 0 -49 9 -102 55 -102 88 -179 102 -290 53 -93 -42 -195
-149 -394 -415 -58 -79 -110 -143 -114 -143 -31 0 -321 -191 -532 -351 -41
-31 -87 -59 -102 -63 l-28 -6 0 -1690 0 -1690 4429 0 4430 0 -36 53 c-19 28
-39 61 -44 72 -5 11 -38 60 -74 110 -36 50 -74 107 -85 127 -20 37 -61 95
-175 248 -33 45 -76 102 -95 128 -104 143 -355 395 -532 534 -118 94 -267 248
-438 453 -36 43 -109 121 -162 173 -54 52 -98 103 -98 113 0 16 26 32 46 28 5
-1 24 -1 42 0 32 1 32 2 32 50 0 28 -5 51 -11 53 -8 3 -5 30 10 88 12 47 26
127 32 178 13 116 35 222 48 235 8 8 11 7 11 -1 0 -7 9 -12 20 -12 24 0 76
-68 91 -121 7 -22 17 -35 24 -33 12 5 56 -50 150 -190 68 -102 174 -220 175
-195 0 19 -109 243 -195 399 -164 299 -189 356 -165 385 7 9 8 15 0 20 -5 3
-10 14 -10 25 0 10 -8 21 -17 25 -16 6 -15 8 6 16 19 8 21 12 11 24 -7 8 -21
15 -31 15 -27 0 -24 18 3 22 30 4 34 33 9 55 -14 11 -19 24 -15 39 3 12 1 25
-5 28 -6 4 -11 22 -11 39 -1 33 -22 71 -36 65 -13 -5 -17 32 -6 56 6 11 13 30
17 41 5 16 8 17 15 5 14 -22 43 7 35 37 -4 17 1 30 21 48 14 13 23 29 19 35
-7 11 21 39 38 40 12 0 8 -28 -5 -32 -7 -3 -13 -15 -13 -29 0 -15 -5 -23 -13
-21 -8 1 -12 -3 -10 -10 3 -7 13 -13 24 -13 14 0 19 7 19 27 0 17 12 40 30 60
28 29 28 31 8 26 -13 -3 -23 -2 -23 2 0 4 -9 6 -20 3 -11 -3 -20 0 -20 6 0 6
5 11 11 11 6 0 8 9 4 20 -3 11 -3 20 2 20 24 1 33 17 24 43 -7 18 -7 28 0 33
6 3 6 11 1 17 -5 7 -9 23 -10 36 0 13 -8 32 -18 42 -9 10 -14 25 -11 33 6 15
-27 56 -44 56 -6 0 -9 6 -6 13 6 18 -11 47 -28 47 -17 0 -19 18 -5 40 8 13 10
12 10 -2 0 -11 8 -19 20 -19 33 -2 38 -4 46 -11 4 -5 0 -8 -9 -8 -10 0 -17 -5
-17 -10 0 -7 7 -7 21 1 12 6 30 9 40 6 27 -7 35 12 13 28 -11 8 -14 15 -9 15
6 0 16 -5 22 -11 7 -7 14 -6 24 4 8 8 26 14 39 13 15 -1 24 4 22 12 -3 17 26
15 44 -3 8 -8 23 -19 32 -25 14 -8 14 -11 3 -19 -10 -6 -10 -10 -1 -16 6 -4
17 -2 23 4 17 17 44 13 51 -6 6 -14 9 -15 16 -4 12 21 40 5 40 -23 0 -15 -7
-25 -20 -29 -31 -8 -26 -44 8 -50 21 -4 32 1 53 25 21 26 30 30 53 24 16 -4
30 -16 33 -26 6 -23 14 -25 32 -7 11 10 14 10 18 0 7 -20 33 -16 27 5 -5 13
-4 14 4 3 6 -8 8 -20 5 -28 -3 -7 0 -13 6 -13 10 0 15 12 12 35 0 6 13 10 29
11 19 1 30 -4 30 -12 0 -8 -4 -14 -10 -14 -5 0 -10 -8 -10 -17 0 -10 4 -14 8
-8 9 13 52 18 52 5 0 -5 -4 -12 -10 -15 -15 -9 -12 -25 4 -25 8 0 16 7 20 15
8 23 59 -3 53 -27 -6 -22 -9 -22 50 3 l48 20 16 -20 c9 -11 19 -18 22 -14 4 3
38 7 77 8 54 2 68 0 60 -9 -6 -9 -6 -16 2 -24 18 -18 28 -15 28 8 0 20 16 28
22 10 5 -15 50 -18 77 -4 21 11 28 11 41 -1 22 -20 27 -19 33 5 7 28 53 47 78
32 30 -19 56 -14 78 16 19 25 20 26 14 3 -8 -30 14 -44 41 -25 11 8 35 14 52
14 28 0 33 -4 39 -30 4 -16 10 -30 13 -30 14 1 42 27 42 39 0 7 5 9 10 6 6 -3
10 1 10 9 0 9 -7 16 -16 16 -8 0 -12 5 -9 10 9 14 56 1 82 -23 13 -11 24 -19
25 -16 21 34 27 51 21 66 -6 17 -5 16 15 -1 12 -11 22 -14 22 -8 0 6 6 9 14 6
16 -6 69 54 62 71 -2 7 4 15 14 18 11 3 21 -1 24 -9 3 -8 12 -14 21 -14 11 0
14 6 9 25 -7 30 -2 31 33 8 25 -17 26 -16 47 10 12 15 28 27 35 27 7 0 11 6 8
14 -5 14 30 36 58 36 19 0 30 40 14 51 -11 7 -10 11 6 23 22 16 35 12 35 -11
0 -10 6 -14 20 -10 11 3 23 1 26 -5 3 -5 12 -7 19 -4 7 2 16 -1 18 -8 6 -15
77 -15 77 -1 -1 6 -11 9 -24 7 -26 -3 -79 35 -70 50 4 5 20 7 37 4 17 -3 36
-1 44 6 10 8 17 8 25 0 8 -8 17 -8 30 -1 19 10 27 -4 8 -16 -17 -11 -11 -23
10 -18 11 3 27 -2 36 -11 17 -18 46 -18 44 -1 -1 5 9 13 22 16 22 6 22 7 -7
18 -21 9 -36 9 -53 1 -21 -9 -23 -8 -20 12 3 26 5 26 96 3 65 -16 82 -14 82
11 0 11 -9 13 -39 8 -34 -5 -39 -3 -44 16 -3 12 -10 19 -16 15 -6 -3 -8 -11
-5 -17 5 -8 1 -9 -10 -5 -10 4 -20 7 -22 7 -3 0 -2 5 1 10 4 6 11 8 16 5 5 -4
9 -2 9 3 0 17 40 21 54 6 8 -8 18 -14 23 -14 18 0 63 -25 63 -35 0 -6 -11 -22
-24 -37 -14 -14 -22 -29 -18 -33 4 -4 -7 -5 -25 -2 -27 5 -31 3 -30 -12 1 -12
6 -17 15 -13 21 8 5 -39 -20 -59 -13 -10 -17 -19 -10 -23 6 -3 13 0 15 6 4 10
6 10 6 -1 1 -7 -10 -22 -24 -33 -19 -15 -24 -25 -19 -45 6 -22 4 -24 -14 -19
-19 6 -20 5 -9 -24 10 -26 9 -33 -11 -52 -12 -12 -22 -17 -22 -10 0 6 -7 12
-15 12 -8 0 -15 -7 -15 -15 0 -8 7 -15 15 -15 30 0 3 -106 -29 -114 -24 -6
-59 -67 -50 -90 3 -8 0 -17 -6 -21 -8 -5 -8 -11 1 -21 6 -8 9 -18 5 -21 -4 -4
-11 -1 -16 7 -8 13 -10 12 -10 -2 0 -9 9 -23 20 -31 28 -19 30 -59 4 -71 -16
-7 -21 -18 -20 -45 1 -22 -4 -36 -11 -37 -23 -3 -23 -4 -8 -21 31 -35 65 -81
65 -87 0 -4 -11 -4 -24 0 -21 5 -23 3 -19 -20 3 -14 1 -26 -5 -26 -5 0 -12
-14 -16 -31 -3 -18 -14 -38 -24 -45 -13 -10 -14 -15 -5 -25 9 -9 16 -9 25 -1
9 7 18 7 30 -2 10 -7 15 -16 12 -19 -4 -3 3 -5 14 -4 16 1 21 10 25 45 6 52 7
54 54 61 32 5 38 11 41 34 2 15 8 27 13 27 18 0 89 89 89 110 0 7 7 10 15 6
10 -3 24 5 38 21 12 15 36 43 53 62 17 20 29 42 27 49 -3 8 11 19 36 29 23 9
41 21 40 27 -4 34 3 57 21 66 25 13 60 4 60 -16 0 -8 7 -14 15 -14 16 0 21 15
8 23 -5 2 -2 2 6 0 8 -2 17 1 21 7 10 15 5 -51 -5 -74 -6 -13 -4 -21 3 -24 16
-5 15 -24 -5 -64 -30 -60 -32 -66 -25 -73 13 -13 10 -130 -4 -157 -8 -15 -14
-43 -14 -63 0 -19 -4 -35 -9 -35 -6 0 -13 -20 -17 -45 -3 -25 -10 -45 -14 -45
-7 0 -42 -27 -71 -55 -9 -9 -20 -38 -23 -66 -6 -42 -11 -51 -33 -60 -20 -7
-23 -13 -15 -21 20 -20 15 -76 -8 -90 -11 -7 -20 -20 -20 -30 0 -9 -5 -20 -10
-23 -5 -3 -10 -13 -10 -22 0 -8 -52 -66 -115 -127 -63 -62 -115 -118 -115
-125 0 -21 -48 -61 -73 -61 -17 0 -28 -8 -36 -27 -10 -25 -36 -47 -93 -78 -10
-5 -18 -13 -18 -18 0 -4 -26 -43 -58 -85 -57 -75 -152 -218 -152 -228 0 -2
-22 -28 -50 -56 -27 -28 -50 -56 -50 -61 0 -12 -64 -110 -102 -157 -16 -19
-57 -71 -91 -115 -34 -44 -66 -84 -70 -90 -5 -5 -17 -23 -28 -40 -10 -16 -43
-65 -71 -107 -29 -43 -69 -102 -88 -133 -19 -30 -38 -55 -42 -55 -5 0 -8 -8
-8 -17 -1 -10 -9 -32 -18 -49 -40 -74 -62 -118 -62 -126 0 -5 -9 -28 -21 -53
-24 -51 -73 -85 -84 -57 -3 8 -8 12 -12 9 -3 -4 -1 -12 4 -19 6 -7 13 -31 16
-52 7 -45 51 -141 78 -171 10 -11 27 -41 39 -67 33 -75 65 -44 53 52 l-6 48
-34 -5 -35 -6 7 49 c8 54 36 128 54 138 6 4 11 20 11 37 0 16 5 29 10 29 6 0
10 6 10 14 0 8 11 27 24 43 13 15 27 39 31 53 4 14 14 32 22 41 7 9 13 21 11
25 -2 5 7 20 20 34 12 13 22 29 22 36 0 18 41 87 57 97 7 4 13 15 13 24 0 8
16 38 35 64 19 27 35 51 35 54 0 17 46 65 62 65 10 0 21 8 24 18 18 57 41 95
64 107 17 9 30 25 33 43 3 15 23 46 44 68 21 22 49 57 63 79 13 22 39 59 58
83 37 45 60 83 87 145 10 20 29 47 45 60 15 13 30 35 34 50 3 15 11 27 16 27
6 0 10 7 10 15 0 24 59 80 71 68 21 -21 6 -56 -28 -65 -24 -6 -34 -16 -39 -36
-10 -47 -34 -92 -49 -92 -10 0 -15 -10 -15 -28 0 -15 -5 -33 -12 -40 -16 -16
4 -37 26 -29 19 7 21 38 4 55 -9 9 -6 12 13 12 14 0 36 9 49 20 28 24 34 25
50 5 17 -20 6 -59 -33 -120 -41 -64 -58 -81 -91 -89 -19 -5 -26 -12 -22 -21 3
-8 1 -15 -5 -15 -6 0 -8 11 -4 28 14 64 -38 112 -63 58 -8 -19 -7 -27 6 -41
16 -16 15 -17 -10 -11 -25 6 -28 3 -28 -18 0 -13 -7 -29 -15 -36 -8 -7 -15
-16 -15 -21 0 -16 26 -10 48 11 25 24 38 25 49 6 14 -24 86 -26 77 -2 -3 9 3
17 15 21 12 3 21 10 21 15 0 5 11 21 25 36 14 15 25 33 25 40 0 8 5 14 10 14
6 0 10 7 10 15 0 8 17 33 39 55 30 31 46 40 73 40 22 0 42 7 53 20 10 12 25
18 33 15 9 -3 44 25 96 78 45 46 91 89 104 96 19 10 22 9 28 -13 4 -16 11 -23
20 -19 21 8 18 -33 -3 -43 -10 -4 -20 -8 -23 -9 -39 -13 -60 -28 -60 -41 0
-23 -38 -54 -67 -54 -16 0 -23 -6 -23 -19 0 -33 -11 -51 -31 -51 -12 0 -19 7
-19 20 0 11 -7 23 -16 27 -19 7 -38 -17 -24 -31 19 -19 9 -41 -30 -73 -21 -18
-43 -33 -49 -33 -5 0 -13 -10 -16 -22 -16 -53 -31 -77 -52 -83 -12 -3 -30 -19
-38 -35 -9 -17 -22 -30 -31 -30 -22 0 -64 -30 -64 -46 0 -8 -8 -18 -17 -21
-10 -4 -39 -24 -65 -46 -45 -37 -51 -40 -110 -39 -55 1 -61 0 -45 -12 16 -13
16 -14 -8 -20 -14 -4 -25 -11 -25 -16 0 -6 -4 -10 -10 -10 -16 0 -12 27 6 45
15 15 15 17 -5 22 -11 3 -21 13 -22 22 0 12 -2 11 -8 -4 -5 -11 -7 -23 -4 -27
4 -7 -11 -12 -29 -9 -4 0 -10 -8 -13 -19 -3 -10 -14 -21 -23 -25 -22 -7 -65
-72 -50 -77 20 -7 -3 -49 -33 -60 -18 -6 -29 -17 -29 -29 0 -10 -6 -19 -12
-19 -18 0 -37 -46 -31 -70 4 -14 0 -20 -11 -20 -9 0 -16 -7 -16 -15 0 -8 -5
-14 -11 -12 -6 1 -14 -4 -16 -10 -3 -8 4 -13 15 -13 11 0 22 -7 26 -15 8 -23
28 -18 21 5 -4 11 0 34 8 50 9 16 13 39 10 50 -4 14 0 20 11 20 9 0 16 5 16
10 0 6 5 10 11 10 6 0 7 -5 2 -12 -14 -23 -11 -73 5 -91 14 -16 14 -20 -1 -52
-17 -35 -17 -36 9 -45 14 -6 30 -10 35 -10 13 0 34 20 42 40 3 8 6 -20 6 -63
1 -72 2 -78 20 -72 24 7 51 -28 51 -67 0 -16 5 -28 10 -28 6 0 10 4 10 10 0
15 31 0 74 -36 21 -18 52 -34 70 -36 21 -2 34 -10 41 -26 12 -27 28 -24 35 9
3 13 14 25 25 27 50 7 64 15 117 64 62 58 113 133 128 189 8 30 15 182 11 254
-1 12 -14 28 -30 38 -16 9 -32 28 -35 42 -5 18 -13 25 -31 25 -31 0 -39 15
-36 68 2 30 -1 42 -8 38 -6 -4 -11 -18 -11 -32 0 -19 -5 -25 -17 -22 -37 7
-21 101 18 113 11 4 31 18 44 31 24 24 60 42 112 58 18 6 26 1 42 -24 21 -35
18 -37 37 30 4 15 1 20 -14 20 -11 0 -26 7 -33 16 -11 14 -11 18 4 29 9 7 17
24 17 39 0 27 32 65 55 66 6 0 16 9 23 20 9 15 23 20 53 20 36 0 42 3 52 30 6
16 15 30 19 30 4 0 8 6 8 14 0 12 25 25 55 30 5 0 12 12 16 26 l7 25 7 -22 c4
-13 14 -23 21 -23 17 0 17 -4 3 -49 -17 -53 -31 -81 -38 -76 -4 2 -5 -12 -3
-31 4 -33 -4 -77 -44 -234 -9 -36 -23 -106 -33 -157 -16 -91 -30 -128 -32 -82
0 22 -1 23 -9 4 -12 -28 -12 -47 0 -40 18 11 11 -50 -26 -222 -20 -92 -40
-189 -44 -214 -11 -60 -58 -253 -69 -282 -5 -12 -15 -49 -21 -82 -14 -68 -30
-126 -65 -235 -13 -41 -26 -86 -28 -100 -3 -14 -9 -35 -12 -47 l-7 -23 3501 0
3501 0 0 1858 0 1857 -98 66 c-54 37 -112 70 -129 73 -18 4 -43 16 -57 27 -14
11 -28 18 -33 17 -4 -1 -25 4 -46 11 -32 11 -48 28 -98 103 -115 174 -196 264
-293 326 -43 28 -59 32 -120 33 -117 2 -150 -7 -195 -55 l-24 -25 -51 43 c-28
23 -72 50 -97 59 -29 11 -69 40 -108 79 l-62 62 -56 -2 c-50 -2 -102 -24 -123
-53 -14 -19 -53 -19 -93 0 -41 19 -67 26 -189 51 -72 14 -89 37 -113 141 -21
98 -55 137 -110 131 -20 -2 -39 -11 -42 -18 -3 -8 -10 -14 -17 -14 -6 0 -37
-20 -68 -45 -61 -48 -68 -50 -96 -36 -9 5 -46 23 -82 40 -36 17 -87 42 -113
57 -62 34 -117 40 -193 20 -155 -40 -200 -21 -395 169 -82 80 -155 145 -162
145 -8 0 -27 6 -43 14 -29 14 -132 24 -150 14 -5 -2 -27 -6 -48 -7 -21 -1 -47
-6 -57 -11 -10 -6 -27 -10 -39 -10 -11 0 -38 -8 -58 -18 -36 -17 -72 -18 -72
-3 0 5 -11 8 -24 8 -14 0 -61 19 -106 43 -45 23 -112 53 -149 67 -61 22 -130
52 -173 74 -10 5 -26 9 -35 9 -10 0 -31 7 -47 15 -15 8 -38 15 -51 15 -16 0
-47 28 -106 93 -186 206 -352 327 -540 393 -40 14 -91 34 -113 45 -22 10 -47
19 -55 19 -30 1 -99 76 -141 155 -24 44 -57 100 -72 124 -15 25 -28 54 -28 65
0 49 49 178 76 201 6 6 15 31 19 57 3 26 10 50 15 53 5 3 14 24 20 46 6 22 18
43 26 46 9 3 14 19 14 44 0 21 4 39 9 39 4 0 6 22 3 50 -5 53 3 65 18 28 7
-18 9 -12 9 29 1 50 13 74 26 53 13 -21 24 -9 19 22 -8 50 9 113 29 112 10 -1
17 5 17 17 0 10 5 21 10 24 6 3 10 19 10 34 0 28 38 114 73 164 10 15 16 34
14 42 -3 7 1 16 9 19 9 3 14 20 14 46 0 40 15 55 23 23 3 -10 5 11 4 47 0 36
5 85 12 110 7 25 15 62 18 83 4 32 3 36 -12 31 -15 -6 -16 -2 -10 37 11 68 21
80 33 39 10 -35 10 -34 11 18 1 30 8 63 17 78 11 15 16 43 15 77 0 28 4 90 10
137 7 47 11 93 11 104 -1 10 9 31 20 47 23 31 25 72 12 195 -4 38 -2 69 5 80
9 16 10 13 11 -21 0 -22 9 -71 19 -109 15 -59 20 -67 29 -50 12 23 4 113 -12
133 -7 9 -11 65 -10 154 0 123 2 141 18 153 24 17 32 89 16 152 -10 43 -9 55
4 81 9 17 14 41 11 53 -3 13 -7 66 -9 118 -3 52 -14 163 -26 245 -12 83 -23
170 -26 195 l-4 45 13 -40 c8 -23 18 -49 24 -60 10 -17 11 -17 17 3 4 12 5 26
2 31 -4 5 -2 11 2 13 8 3 40 128 49 193 2 17 8 39 13 50 15 36 29 108 35 180
8 101 15 131 26 114 6 -9 9 6 9 43 0 36 4 58 13 60 7 3 15 36 19 89 10 112 19
169 27 169 8 0 25 86 36 175 4 28 15 68 26 91 10 22 24 66 30 97 8 48 53 157
63 157 2 0 1 -12 -2 -26 -3 -19 -1 -25 7 -20 6 4 11 25 11 47 0 21 4 47 9 57
31 64 41 92 47 131 4 25 13 56 21 70 7 14 13 40 12 56 0 26 -2 27 -9 10 -8
-19 -9 -19 -9 3 -1 12 5 22 12 22 15 0 36 98 38 171 1 70 23 176 35 172 29
-10 35 550 6 579 -7 7 -12 28 -12 48 0 19 -6 67 -14 105 -8 39 -19 93 -25 120
-5 28 -17 77 -26 110 -9 33 -20 76 -24 95 -3 19 -11 33 -16 30 -6 -3 -13 13
-16 35 -3 22 -15 56 -27 75 -16 26 -20 44 -16 67 3 18 3 41 -1 50 -7 16 -9 15
-14 -7 -5 -19 -11 -9 -30 55 -28 97 -35 140 -27 161 10 25 31 2 66 -73 58
-123 83 -213 109 -391 13 -87 21 -89 23 -6 4 114 -2 168 -17 180 -8 6 -15 23
-15 37 0 14 -16 66 -36 114 -20 48 -46 113 -59 143 -36 88 -48 112 -82 163
-18 27 -37 66 -43 87 -6 21 -16 40 -23 43 -7 3 -33 40 -58 83 -25 44 -59 102
-75 129 -16 28 -36 64 -44 81 -22 45 -123 183 -135 184 -5 0 -28 28 -50 63
-22 34 -42 64 -45 67 -3 3 -6 16 -8 30 -5 50 -13 70 -25 70 -6 0 -21 18 -31
40 -11 22 -24 39 -30 37 -15 -5 -35 24 -36 51 0 12 -6 22 -13 22 -12 0 -49 63
-62 105 -3 11 -32 40 -64 65 -32 25 -57 47 -56 50 2 3 0 12 -6 20 -6 10 -9 11
-9 3 0 -7 -5 -13 -10 -13 -6 0 -9 4 -8 8 3 9 -20 44 -55 85 -11 12 -27 38 -37
57 -10 19 -31 44 -47 56 -16 12 -37 39 -48 62 -12 25 -24 37 -30 32 -11 -9
-53 31 -48 46 1 5 -1 15 -6 23 -7 12 -13 12 -24 3 -11 -10 -18 -6 -36 17 -15
19 -29 27 -41 24 -14 -4 -20 2 -25 25 -7 35 -24 52 -82 82 -26 13 -43 29 -43
39 0 26 -10 31 -32 18 -17 -10 -23 -7 -51 23 -17 19 -36 34 -43 32 -6 -1 -17
5 -24 13 -7 8 -18 15 -24 15 -6 0 -17 9 -24 20 -7 11 -18 17 -27 14 -10 -4
-28 7 -48 30 -19 20 -36 36 -39 36 -4 0 -20 12 -36 28 -49 44 -89 72 -105 72
-9 0 -19 5 -22 11 -12 18 -108 56 -190 74 -44 9 -88 21 -97 26 -9 5 -36 12
-60 15 -24 4 -54 15 -67 25 -12 10 -38 21 -57 25 -18 3 -38 12 -44 19 -6 7
-19 11 -29 8 -10 -2 -35 2 -55 11 -43 18 -225 45 -311 46 -58 1 -135 6 -145
11 -6 3 -38 6 -120 13 -68 5 -120 12 -157 21 -12 3 -23 0 -25 -6 -3 -9 -10 -9
-27 1 -14 7 -39 10 -59 6 -26 -4 -39 -1 -49 12 -12 16 -14 15 -33 -8 -17 -21
-21 -23 -30 -10 -5 8 -10 22 -10 31 0 20 -51 69 -72 69 -9 0 -20 5 -23 10 -4
6 -15 8 -26 5 -11 -4 -19 -2 -19 6 0 8 -3 9 -13 0 -8 -6 -16 -9 -18 -6 -3 2
-26 5 -52 6 -26 2 -47 6 -47 10 0 3 -21 5 -47 3 -25 -1 -55 2 -66 7 -28 15
-130 16 -135 1 -7 -22 -35 -14 -29 8 4 15 0 20 -15 20 -16 0 -19 -5 -14 -27z
m-504 -173 c0 -5 -11 -10 -25 -10 -14 0 -25 5 -25 10 0 6 11 10 25 10 14 0 25
-4 25 -10z m208 -45 c-2 -14 -7 -26 -13 -26 -5 0 -11 12 -13 26 -2 18 1 25 13
25 12 0 15 -7 13 -25z m4012 -1948 c0 -5 -4 -5 -10 -2 -5 3 -10 14 -10 23 0
15 2 15 10 2 5 -8 10 -19 10 -23z m241 -413 c19 -48 20 -58 8 -85 l-13 -32
-17 22 c-9 11 -20 45 -24 73 -4 29 -14 62 -21 73 -8 11 -14 28 -14 39 0 34 55
-28 81 -90z m-3022 -226 c-20 -39 -68 -92 -77 -84 -1 2 18 34 44 70 51 74 67
81 33 14z m-191 -500 c19 -25 -4 -56 -48 -63 -53 -9 -71 6 -40 32 12 10 28 23
34 30 15 16 41 16 54 1z m-113 -108 c0 -20 -8 -26 -50 -37 -27 -7 -61 -12 -75
-12 l-25 0 24 17 c41 30 105 62 116 59 5 -2 10 -14 10 -27z m984 -74 c16 -19
-4 -33 -62 -41 -26 -4 -50 -11 -53 -16 -7 -12 -74 -11 -74 1 0 6 6 10 14 10 8
0 40 13 73 30 65 33 85 36 102 16z m91 0 c0 -2 -13 -6 -30 -8 -16 -3 -30 -1
-30 4 0 4 14 8 30 8 17 0 30 -2 30 -4z m-320 -66 c-6 -11 -15 -18 -20 -15 -13
8 0 35 16 35 12 0 12 -4 4 -20z m942 -4 c21 -14 31 -15 48 -6 11 6 44 10 73 8
43 -3 52 -6 52 -22 0 -13 -11 -23 -32 -30 -45 -15 -48 -22 -24 -47 l20 -22 10
24 9 24 11 -28 11 -28 22 21 c25 23 58 27 58 6 0 -15 -22 -41 -39 -48 -4 -1
-20 -26 -34 -55 -27 -52 -108 -130 -125 -119 -6 3 -17 -5 -26 -18 -8 -14 -24
-27 -35 -31 -12 -4 -18 -12 -14 -21 3 -9 -1 -14 -14 -14 -10 0 -24 -5 -30 -11
-8 -8 -19 -6 -41 5 -41 21 -43 21 -31 -11 15 -39 3 -76 -21 -70 -11 3 -22 1
-25 -3 -3 -5 -40 -7 -83 -5 -42 2 -94 0 -115 -5 -21 -4 -39 -4 -43 1 -8 13
-51 11 -66 -4 -30 -30 -76 -26 -100 8 -6 8 -119 10 -161 2 -10 -2 -24 -13 -33
-25 -8 -12 -22 -22 -30 -22 -8 0 -17 -7 -20 -15 -4 -8 -10 -15 -15 -15 -4 0
-6 7 -2 16 5 14 2 16 -19 11 -30 -8 -42 1 -27 20 23 27 -8 12 -53 -27 -45 -39
-98 -128 -98 -166 0 -12 9 -7 35 19 20 21 41 37 46 37 6 0 8 4 4 9 -9 15 15
25 28 12 9 -9 8 -14 -3 -21 -19 -12 -8 -13 22 -1 23 9 24 7 20 -22 -3 -18 -9
-38 -15 -45 -5 -7 -6 -16 -2 -20 4 -4 10 -1 12 6 6 15 50 16 55 0 5 -14 38 -4
38 12 0 5 -11 10 -25 10 -14 0 -25 5 -25 10 0 6 11 8 25 4 14 -3 32 -1 40 6
21 17 32 5 27 -30 -3 -19 0 -30 8 -30 15 0 70 32 70 41 0 10 65 20 84 13 20
-8 21 -24 1 -24 -8 0 -12 -6 -9 -14 3 -8 -8 -23 -26 -36 -30 -21 -30 -23 -14
-41 19 -21 44 -25 44 -8 0 12 38 3 60 -16 22 -18 59 -25 67 -13 4 7 11 4 20
-8 12 -16 16 -17 35 -5 17 10 22 10 29 0 5 -9 11 -10 21 -2 7 5 34 16 61 23
26 7 47 17 47 21 0 5 18 9 40 9 22 0 40 4 40 8 0 5 25 5 56 1 31 -4 62 -5 70
-2 8 3 14 0 14 -7 0 -6 10 -10 23 -8 18 2 23 -2 25 -24 2 -16 9 -28 18 -28 8
0 14 -5 14 -11 0 -6 7 -3 16 5 17 18 79 22 89 6 11 -18 27 -10 22 10 -5 18 -1
20 28 18 19 -1 33 -6 32 -11 -3 -17 51 -26 64 -11 9 11 7 14 -14 14 -14 0 -29
5 -32 10 -3 6 0 10 8 10 8 0 20 7 27 14 6 8 30 16 53 18 34 2 41 7 39 21 -4
26 20 21 58 -13 18 -16 36 -27 41 -25 18 12 -38 125 -62 125 -5 0 -9 7 -9 15
0 7 -6 18 -13 22 -7 4 -20 20 -30 36 -16 25 -16 28 -1 34 20 7 50 -28 60 -70
4 -19 11 -27 23 -25 17 3 39 -16 79 -67 13 -16 31 -30 40 -30 9 0 17 -7 17
-17 0 -17 49 -68 66 -68 6 0 9 10 8 23 -2 12 1 29 6 37 5 8 10 18 11 23 1 4 2
10 3 14 0 4 7 -2 15 -12 14 -19 15 -19 34 -2 23 21 38 8 48 -41 6 -27 10 -31
30 -26 30 8 30 -4 3 -58 -11 -22 -17 -43 -12 -47 15 -10 22 -38 12 -48 -6 -6
-4 -14 6 -23 8 -7 15 -20 15 -29 0 -9 9 -27 20 -41 17 -22 19 -23 25 -7 11 27
53 22 67 -8 6 -14 15 -25 20 -25 4 0 8 -9 8 -20 0 -30 22 -71 36 -66 24 9 27
-54 5 -109 -11 -25 -10 -31 6 -43 17 -12 39 -97 47 -184 2 -20 7 -41 10 -46 3
-6 10 -84 16 -173 5 -90 15 -190 20 -222 6 -31 13 -90 15 -130 17 -323 24
-555 18 -623 -4 -56 -2 -83 6 -88 15 -10 13 -45 -3 -75 -12 -21 -12 -28 1 -48
11 -16 12 -27 5 -36 -10 -12 -8 -89 3 -107 4 -6 -1 -7 -11 -3 -14 5 -15 1 -8
-28 4 -19 7 -43 6 -54 -1 -11 -2 -31 -3 -45 0 -14 -3 -32 -6 -40 -3 -8 -6
-130 -7 -270 -1 -140 -5 -272 -9 -292 -5 -24 -3 -38 3 -38 15 0 12 -19 -5 -36
-11 -11 -12 -20 -5 -34 6 -10 10 -30 10 -44 0 -19 -4 -24 -16 -19 -13 5 -15
-3 -14 -48 2 -106 0 -175 -8 -209 l-8 -34 -13 32 c-19 45 -27 40 -27 -15 1
-32 -3 -47 -11 -46 -8 2 -10 -20 -6 -80 9 -150 8 -227 -5 -227 -5 0 -17 16
-28 35 -15 29 -17 41 -8 74 6 22 7 46 3 53 -6 9 -9 4 -9 -14 0 -15 -4 -29 -9
-32 -5 -3 -12 40 -16 95 -4 55 -10 98 -13 94 -3 -3 -9 -57 -12 -119 -8 -133
-13 -146 -46 -115 l-23 22 11 -34 c6 -19 19 -53 30 -75 16 -37 17 -45 4 -70
-8 -16 -18 -42 -23 -58 -10 -35 -26 -37 -34 -4 -3 13 -4 -18 -1 -67 4 -75 2
-93 -12 -104 -14 -11 -16 -11 -16 3 0 9 -5 16 -11 16 -7 0 -10 -12 -7 -29 4
-29 -9 -37 -24 -17 -3 5 -4 -27 -1 -72 6 -80 5 -81 -25 -111 -17 -17 -26 -33
-21 -37 10 -6 8 -35 -2 -44 -3 -3 -12 -18 -20 -35 -8 -16 -21 -31 -29 -33 -13
-2 -16 12 -17 78 -1 44 -5 86 -9 92 -9 13 -33 -48 -41 -102 -7 -50 -61 -163
-73 -155 -7 4 -8 28 -4 66 5 43 3 63 -7 76 -12 14 -15 9 -19 -43 l-6 -59 -21
45 c-12 25 -25 62 -28 83 -13 70 -24 24 -18 -76 5 -74 9 -95 18 -87 8 7 15 3
23 -16 11 -24 17 -84 8 -84 -2 0 -11 -2 -18 -5 -25 -10 -57 90 -77 237 -14
100 -34 124 -24 28 12 -117 1 -268 -18 -239 -5 8 -9 30 -9 49 0 26 -3 31 -10
20 -12 -20 -16 -14 -32 59 -8 36 -19 66 -26 69 -16 5 -15 -22 3 -91 18 -71 19
-104 3 -110 -8 -4 -5 -8 9 -12 28 -9 35 -40 18 -82 -16 -37 -31 -42 -40 -13
-3 11 -13 20 -20 20 -11 0 -13 -10 -8 -45 4 -29 1 -50 -7 -60 -17 -21 -30 -19
-30 6 0 12 -4 17 -11 14 -5 -4 -9 -17 -8 -28 3 -25 -21 -107 -31 -107 -3 0
-15 -7 -26 -15 -18 -15 -17 -16 14 -10 37 8 40 -2 12 -35 -11 -13 -20 -36 -20
-52 0 -15 -4 -28 -9 -28 -12 0 -25 56 -22 100 1 19 -3 42 -8 49 -8 12 -12 9
-21 -15 -7 -16 -16 -37 -21 -46 -5 -11 -4 -18 3 -20 7 -3 14 -33 16 -71 5 -74
2 -76 -56 -56 -18 6 -30 15 -27 19 3 4 -6 11 -20 14 -16 4 -25 13 -25 26 0 11
-6 20 -12 20 -7 0 -4 7 7 16 11 8 19 22 17 31 -2 8 4 24 14 34 9 11 15 22 12
25 -11 10 -48 -21 -57 -48 -13 -38 -46 -37 -66 1 -12 24 -13 40 -5 82 12 65
13 62 -4 56 -17 -7 -26 21 -26 81 0 24 4 41 9 37 5 -3 12 -1 16 5 3 5 -1 10
-10 10 -16 0 -45 55 -45 84 0 7 9 16 20 19 27 7 25 30 -5 58 -13 13 -25 30
-25 38 0 8 -7 19 -15 25 -24 18 -49 125 -50 211 0 97 -4 109 -81 269 -13 28
-24 55 -24 62 0 15 -39 64 -51 64 -6 0 -6 -7 1 -19 12 -24 13 -31 1 -31 -4 0
-26 28 -49 63 -51 78 -79 104 -117 108 -16 2 -47 14 -67 26 -37 23 -38 23 -38
3 0 -11 -1 -20 -3 -20 -1 0 -16 4 -34 9 -27 8 -32 6 -37 -12 -6 -21 -7 -20
-32 11 -18 23 -31 31 -44 27 -12 -4 -22 1 -29 12 -9 17 -11 16 -29 -5 -13 -14
-23 -19 -27 -12 -3 5 -25 20 -47 31 -39 20 -42 20 -54 4 -34 -46 -18 -200 28
-255 13 -17 18 -19 14 -7 -9 27 10 20 33 -12 27 -38 38 -203 15 -222 -9 -7
-14 -8 -14 -1 0 16 -33 24 -42 10 -6 -10 -8 -9 -8 3 0 17 -43 29 -103 29 -27
0 -27 1 -13 21 10 14 12 29 6 47 -4 15 -16 54 -25 87 -31 111 -30 101 -11 82
36 -36 44 -10 26 83 -11 60 1 77 15 20 13 -55 38 -61 43 -11 2 19 -3 64 -12
100 -8 36 -17 89 -20 116 -6 59 -32 128 -46 120 -5 -3 -7 -25 -4 -49 8 -52 -9
-68 -26 -26 -7 16 -18 35 -26 41 -12 9 -14 5 -15 -27 l-1 -39 -14 33 c-8 17
-19 32 -25 32 -8 0 -8 4 0 14 15 17 11 68 -5 73 -6 2 -16 -8 -23 -23 -11 -25
-13 -26 -30 -10 -14 13 -17 27 -14 60 6 48 -11 71 -31 44 -12 -16 -91 -18
-116 -3 -7 4 -14 -1 -17 -14 -8 -29 -21 -26 -29 7 -10 47 -13 52 -29 46 -10
-4 -15 0 -15 11 0 9 5 13 11 9 8 -4 9 3 5 22 -5 24 -2 31 19 40 21 10 25 9 30
-7 8 -24 21 -24 34 -2 7 13 12 14 23 6 8 -7 40 -11 78 -9 36 2 93 4 128 4 48
2 66 6 79 22 12 13 21 16 29 9 16 -13 46 0 39 19 -3 8 0 21 6 29 9 10 9 19 -1
38 -7 14 -17 25 -22 25 -5 0 -7 -4 -4 -9 3 -5 -2 -12 -11 -16 -10 -3 -19 -1
-21 4 -2 6 -24 11 -48 11 -25 0 -43 4 -40 9 7 10 -128 24 -244 25 -58 1 -85
-4 -120 -21 -25 -13 -61 -26 -80 -29 -19 -4 -40 -11 -46 -16 -6 -4 -19 -6 -27
-2 -11 4 -28 -6 -50 -30 -19 -19 -38 -32 -43 -27 -12 10 -94 2 -94 -10 0 -5 9
-9 20 -9 11 0 20 -4 20 -10 0 -14 -25 -12 -65 4 -21 9 -37 11 -40 5 -4 -5 -21
-9 -39 -9 -17 0 -38 -6 -45 -12 -11 -10 -14 -10 -18 0 -6 16 -40 16 -47 0 -5
-10 -7 -10 -12 0 -14 31 -35 42 -56 31 -14 -8 -23 -8 -31 0 -8 8 -4 11 14 11
22 1 23 1 5 12 -18 10 -34 14 -79 17 -10 0 -16 5 -12 10 3 6 -10 13 -30 17
-19 3 -35 12 -35 19 0 7 -25 18 -60 25 -33 7 -64 19 -69 27 -15 28 -322 46
-338 20 -3 -5 -16 -6 -28 -3 -13 3 -27 2 -30 -4 -3 -6 -17 -7 -30 -4 -13 3
-32 1 -43 -5 -13 -7 -23 -7 -27 -1 -3 5 -12 7 -19 4 -8 -3 -16 4 -20 18 -5 19
-8 20 -16 8 -7 -12 -10 -12 -10 -1 0 7 -6 11 -14 8 -22 -8 -36 14 -36 55 0 35
-23 108 -33 108 -15 0 16 -234 33 -250 16 -15 29 -52 23 -66 -4 -12 -3 -15 6
-10 18 11 55 -32 56 -63 0 -19 6 -27 23 -29 12 -2 22 -7 22 -11 0 -15 -71
-101 -84 -101 -3 0 -6 7 -6 15 0 8 -4 15 -9 15 -13 0 -22 -30 -15 -53 8 -27
-26 -97 -48 -97 -14 0 -18 8 -18 35 0 19 -3 35 -7 35 -5 -1 -23 -14 -42 -30
-19 -16 -38 -27 -43 -24 -14 9 -78 -17 -78 -32 0 -8 -4 -14 -9 -14 -6 0 -6 12
0 32 17 59 9 62 -41 18 -25 -23 -36 -27 -47 -19 -7 6 -13 8 -13 3 0 -5 -7 -1
-14 9 -9 12 -16 14 -21 8 -3 -6 -19 -11 -36 -11 -16 0 -29 -5 -29 -12 0 -9 -3
-9 -12 0 -8 8 -17 8 -31 0 -18 -9 -19 -8 -14 21 7 33 -8 42 -31 19 -7 -7 -27
-13 -44 -14 -20 -1 -39 -11 -50 -24 -17 -21 -20 -21 -36 -7 -20 19 -36 11 -46
-20 -4 -13 -14 -23 -22 -23 -11 0 -13 6 -9 19 4 13 1 18 -7 16 -7 -1 -28 -6
-46 -10 -18 -4 -40 -18 -49 -31 -8 -13 -21 -24 -28 -24 -14 0 -85 -128 -85
-153 0 -8 -7 -17 -15 -21 -8 -3 -15 -13 -15 -21 0 -11 -7 -15 -22 -13 -19 2
-23 9 -23 37 -1 18 5 36 12 38 17 7 17 23 -1 23 -9 0 -12 7 -9 20 3 11 9 20
14 20 5 0 8 3 6 8 -1 4 8 17 21 30 26 26 29 44 5 35 -12 -5 -14 -3 -8 8 13 21
98 123 110 131 46 30 76 56 86 76 7 12 18 22 26 22 7 0 32 18 55 40 47 44 44
47 -22 24 -53 -18 -127 -64 -172 -106 -18 -16 -51 -43 -75 -59 -23 -17 -47
-39 -53 -49 -6 -11 -17 -20 -24 -20 -8 0 -16 -9 -19 -20 -7 -27 -27 -25 -27 3
0 20 -1 20 -15 -7 -8 -15 -15 -45 -15 -65 l1 -36 14 30 c13 30 13 30 15 5 0
-14 0 -79 -1 -145 -3 -142 -3 -168 1 -260 3 -69 -11 -113 -51 -161 -9 -11 -9
-18 -1 -26 8 -8 14 -4 22 18 41 107 66 124 57 38 -4 -38 -13 -64 -27 -79 -11
-12 -20 -27 -18 -33 2 -5 -1 -10 -7 -11 -5 0 -10 8 -9 18 0 11 -5 17 -11 14
-15 -5 -25 40 -25 108 0 27 -4 49 -10 49 -5 0 -10 -9 -10 -19 0 -27 -11 -52
-20 -46 -4 2 -6 45 -4 95 3 74 1 90 -11 90 -8 0 -15 -6 -15 -14 0 -8 -6 -17
-12 -19 -10 -4 -10 -7 -1 -14 7 -5 9 -14 3 -23 -7 -11 -10 -7 -16 16 -10 37
-8 55 17 128 11 32 16 63 12 67 -11 11 -53 -18 -53 -37 0 -8 -5 -14 -11 -14
-8 0 -10 12 -6 36 7 43 -3 134 -14 134 -5 0 -9 -11 -9 -24 0 -13 -6 -41 -14
-62 -7 -22 -11 -45 -8 -53 3 -8 -1 -12 -9 -9 -8 3 -14 20 -15 42 -1 22 -8 42
-19 49 -9 7 -18 25 -18 40 -2 24 -27 41 -27 17 0 -5 -7 -10 -15 -10 -11 0 -12
5 -5 26 6 14 10 37 10 50 0 40 -23 23 -45 -32 -10 -27 -20 -50 -21 -52 0 -1
-9 0 -18 4 -9 4 -16 17 -16 34 0 15 -7 33 -15 40 -8 7 -15 28 -15 46 0 27 -3
32 -17 27 -10 -3 -26 -15 -35 -27 -17 -21 -18 -21 -18 -1 0 15 -3 17 -9 7 -6
-10 -10 -8 -14 8 -4 17 -11 21 -30 18 -26 -5 -52 22 -37 38 4 5 10 29 12 52 4
43 3 44 -34 59 -22 9 -45 28 -57 49 -14 24 -28 34 -44 34 -14 0 -30 7 -37 15
-11 13 -10 18 5 29 18 13 18 14 -3 25 -19 10 -20 15 -11 32 8 16 17 19 35 15
26 -7 28 -4 15 22 -6 9 -12 29 -15 43 -3 14 -16 31 -28 37 -13 6 -17 11 -10
11 13 1 17 51 4 51 -4 0 -7 15 -7 32 0 25 -5 33 -20 36 -30 6 -41 20 -27 34 9
9 12 9 12 0 0 -7 7 -12 15 -12 8 0 15 5 15 10 0 6 -7 13 -15 16 -8 4 -15 16
-15 29 0 12 -10 35 -21 50 -18 22 -20 29 -8 36 13 8 6 13 -13 10 -5 0 -8 11
-8 25 0 23 1 24 16 10 19 -20 28 -20 44 -1 7 8 9 15 5 15 -5 0 0 9 9 19 17 19
17 19 -2 14 -24 -6 -39 14 -22 30 9 9 19 3 44 -25 18 -21 38 -38 44 -38 6 0 9
-6 6 -14 -4 -10 -15 -13 -40 -9 -41 7 -45 -9 -6 -24 l27 -11 -32 1 c-39 2 -44
-15 -6 -19 15 -2 29 -8 31 -14 2 -5 12 -10 23 -10 10 0 19 -4 19 -10 0 -5 5
-10 11 -10 5 0 7 5 4 10 -11 17 3 11 23 -11 17 -18 21 -18 34 -5 12 11 18 12
27 3 14 -14 14 -50 0 -64 -18 -18 11 -48 46 -48 22 1 33 -6 43 -23 16 -31 15
-32 -5 -32 -14 -1 -12 -5 9 -20 17 -13 24 -27 21 -39 -4 -14 3 -20 28 -25 34
-6 59 6 59 30 0 8 -6 14 -12 14 -10 0 -9 3 1 9 10 6 10 10 1 16 -6 4 -9 13 -6
20 3 8 -2 19 -10 25 -19 17 -18 49 4 73 17 20 16 20 -15 14 -26 -5 -36 -1 -62
25 -17 18 -31 38 -31 45 0 7 -4 13 -8 13 -4 0 -8 9 -9 20 -1 14 4 20 18 20 11
0 17 -4 14 -10 -3 -5 2 -24 12 -40 18 -31 43 -36 51 -11 3 8 0 11 -5 8 -5 -3
-20 12 -33 34 -14 26 -36 47 -59 58 -38 17 -42 28 -41 119 1 45 -11 53 -50 32
-23 -12 -47 -4 -47 15 0 8 4 12 9 9 4 -3 8 0 8 5 0 6 -4 11 -10 11 -5 0 -10 8
-10 18 0 13 -2 14 -9 3 -13 -20 -24 5 -12 28 8 14 7 27 -4 48 -19 36 -19 52 0
59 9 4 14 18 14 38 -1 23 -3 25 -6 9 -5 -26 -4 -26 -37 -13 -14 5 -26 15 -26
22 0 7 -7 26 -15 42 -8 15 -12 32 -9 37 3 5 1 9 -5 9 -6 0 -8 36 -5 94 3 60 1
97 -6 101 -5 3 -13 -2 -17 -11 -4 -10 -2 -19 5 -22 17 -5 15 -22 -3 -22 -22 0
-36 44 -40 118 -3 61 -3 62 23 62 20 0 23 3 13 9 -8 5 -21 7 -29 4 -11 -5 -13
-1 -8 15 3 12 9 32 12 43 3 12 2 19 -3 16 -11 -7 -36 49 -30 65 3 8 6 6 6 -4
1 -10 6 -18 11 -18 7 0 8 13 4 36 -5 29 -4 35 6 29 10 -6 12 -4 7 8 -7 20 21
31 39 16 14 -11 15 -10 18 12 0 5 10 20 22 32 15 16 20 33 18 65 -2 48 -17 72
-45 72 -14 0 -19 7 -19 26 0 24 1 24 22 10 32 -22 38 -20 38 14 0 17 4 30 9
30 14 0 21 43 9 57 -7 9 -7 17 1 26 12 16 -1 76 -20 88 -15 9 12 39 35 39 9 0
16 5 16 11 0 6 -9 8 -22 4 -17 -6 -20 -4 -15 10 4 9 7 21 7 26 0 6 5 7 10 4
20 -13 21 24 1 64 -20 38 -20 41 -3 50 14 9 15 12 3 20 -12 8 -11 17 3 59 9
28 16 64 16 80 0 16 7 36 17 43 15 13 16 10 11 -32 -5 -45 -5 -45 24 -41 15 2
36 -2 45 -9 9 -8 14 -9 12 -4 -18 40 -33 65 -41 65 -4 0 -8 11 -8 24 0 14 -4
28 -10 31 -12 7 -14 65 -2 65 4 0 13 -5 20 -12 9 -9 12 -9 12 0 0 6 -9 17 -20
24 -11 7 -20 21 -20 32 0 15 3 16 15 6 13 -11 15 -7 12 29 -3 34 0 44 16 53
14 7 16 12 7 18 -9 5 -9 9 -1 14 15 10 49 -16 72 -53 19 -32 43 -43 33 -16 -4
9 0 15 10 15 9 0 16 -7 16 -16 0 -8 4 -13 9 -10 12 8 1 48 -16 61 -7 6 -14 29
-15 53 -1 24 -5 45 -9 48 -10 6 0 34 12 34 5 0 9 -7 9 -15 0 -12 6 -9 25 9 28
28 47 95 33 119 -6 11 -1 23 17 41 l25 25 0 -24 c0 -25 19 -46 21 -23 0 10 2
10 6 -1 6 -15 40 -51 48 -51 12 0 3 37 -15 68 l-20 32 26 10 c21 8 25 15 22
35 -6 27 1 32 19 14 6 -6 16 -8 22 -5 15 9 1 38 -15 32 -8 -3 -14 1 -14 9 0 8
8 15 18 15 9 0 23 9 30 20 7 11 19 20 27 20 8 0 15 5 15 10 0 6 8 5 19 -2 19
-12 19 -12 -2 -33 -12 -12 -26 -21 -31 -21 -5 1 -11 -5 -13 -11 -3 -7 2 -13
11 -13 9 0 16 -5 16 -11 0 -5 5 -7 10 -4 6 4 9 14 8 23 -2 11 7 18 29 23 18 3
39 11 46 17 7 6 22 11 32 12 57 2 84 6 91 13 4 4 17 7 28 7 20 1 20 1 -3 20
-19 16 -27 18 -38 8 -8 -6 -22 -13 -31 -15 -106 -18 -121 -19 -126 -6 -3 7 1
13 9 13 16 0 18 9 9 34 -3 9 -10 14 -14 11 -4 -3 -11 2 -14 10 -3 10 1 18 12
21 9 3 26 10 37 15 32 15 80 16 78 2 -2 -7 4 -13 12 -13 9 0 20 -12 26 -27
l11 -28 25 43 c26 44 45 56 36 22 -7 -25 12 -26 29 -1 12 17 28 20 113 22 66
2 108 -2 124 -10 17 -9 26 -10 34 -2 15 15 64 14 71 -1 3 -9 9 -8 20 6 12 14
21 17 43 11 15 -5 32 -7 36 -7 4 1 21 -5 38 -13 16 -9 38 -14 47 -11 9 3 30
-1 46 -9 15 -8 41 -15 56 -15 42 0 59 -9 75 -40 11 -22 20 -27 52 -26 31 1 39
5 41 24 4 24 22 31 22 7 0 -23 15 -18 56 20 20 19 44 35 53 35 22 0 47 17 38
26 -3 4 -13 1 -22 -6 -12 -10 -15 -10 -15 3 0 9 5 19 10 22 8 5 8 11 1 19 -9
10 -1 13 34 12 25 -1 45 -4 45 -7 0 -3 12 -4 26 -1 20 3 26 0 31 -17 8 -32 23
-25 23 12 0 17 7 41 15 51 8 11 15 30 15 43 0 13 5 23 10 23 13 0 59 -29 82
-53 17 -16 52 -16 81 0 17 10 5 32 -22 38 -20 4 -34 16 -43 36 -10 23 -18 29
-35 26 -24 -4 -63 32 -63 58 0 11 -10 13 -49 8 -52 -6 -79 10 -36 21 32 8 25
22 -15 30 -22 4 -30 11 -28 22 2 9 -3 19 -9 21 -7 3 -13 -3 -13 -14 -1 -17 -1
-17 -15 1 -18 24 -20 56 -3 56 6 0 22 9 34 21 12 11 41 23 65 26 23 4 58 17
77 30 19 12 48 23 63 23 16 0 29 4 29 8 0 5 39 21 88 36 48 15 94 32 103 36 9
5 26 6 38 3 12 -3 21 -1 21 6 0 13 76 51 103 51 23 0 57 18 78 41 12 14 19 15
27 7 9 -9 12 -8 12 5 0 13 9 17 33 17 21 0 41 8 52 20 10 11 23 20 28 20 5 0
15 7 21 16 11 14 18 14 54 3 42 -12 53 -24 30 -32 -7 -2 -9 -8 -5 -13 5 -5 13
-1 18 9 12 20 29 23 29 3 0 -7 10 -16 23 -18 54 -10 232 9 314 33 23 7 37 7
52 -3 16 -10 27 -10 53 0 18 6 34 8 37 3 9 -13 55 -5 85 14 31 21 34 29 5 20
-19 -6 -20 -5 -9 14 6 13 16 19 23 14 20 -12 47 -10 47 4 0 14 12 17 24 6 3
-4 29 -6 56 -4 39 2 54 -2 72 -19 16 -15 34 -20 58 -19 20 2 41 0 47 -4 6 -4
44 -2 85 4 40 6 102 13 138 15 121 8 129 9 136 17 4 4 13 2 20 -4 10 -8 19 -6
36 5 12 9 34 16 48 16 14 0 47 7 74 15 26 8 92 18 145 21 53 4 101 10 106 14
9 7 56 17 154 34 l35 6 -22 -23 c-20 -21 -29 -47 -17 -47 2 0 26 14 52 30 30
19 57 29 73 26 28 -4 53 7 84 36 17 15 33 18 96 15 50 -2 84 -9 102 -21z m413
-126 c-4 -26 -3 -40 4 -40 6 0 11 6 11 13 0 7 6 22 14 33 14 18 15 18 22 0 4
-11 0 -31 -10 -51 -17 -31 -17 -34 0 -60 17 -25 19 -26 31 -9 7 10 13 24 13
31 0 7 5 13 11 13 8 0 9 -15 5 -45 -4 -25 -5 -45 -2 -45 3 0 15 27 27 60 23
64 29 69 49 45 11 -13 10 -21 -1 -43 -8 -15 -19 -31 -25 -37 -7 -5 -15 -20
-18 -31 -5 -18 3 -29 45 -60 l52 -38 -27 -22 c-14 -13 -26 -34 -26 -47 0 -13
-7 -32 -15 -43 -8 -10 -15 -31 -15 -46 0 -30 -9 -35 -28 -16 -7 7 -18 13 -25
14 -25 2 -57 17 -57 25 0 5 -5 9 -10 9 -6 0 -8 -11 -4 -25 11 -46 -31 -71 -71
-41 -16 11 -17 19 -9 47 8 28 15 34 35 32 13 -1 19 1 12 3 -9 4 -8 15 3 46 8
23 12 43 10 46 -7 6 -55 -51 -56 -66 0 -19 -49 -35 -65 -22 -9 8 -15 8 -20 0
-3 -5 -17 -10 -31 -10 -17 0 -24 6 -24 19 0 11 -12 29 -27 40 -16 11 -22 21
-15 21 17 0 15 20 -2 20 -8 0 -18 -9 -21 -20 -9 -29 -20 -24 -23 10 -2 20 3
33 13 36 9 4 24 23 34 43 22 42 113 131 135 131 8 0 17 8 20 18 3 9 16 28 29
42 13 14 26 33 30 43 13 34 29 18 22 -23z m-2540 21 c3 -5 1 -12 -3 -15 -14
-8 -82 5 -76 15 7 12 71 11 79 0z m2759 -26 c4 -14 13 -25 21 -25 7 0 17 -5
21 -11 11 -18 -11 -30 -44 -23 -28 6 -32 11 -32 39 0 49 23 63 34 20z m-2858
-1 c-3 -9 -6 -18 -6 -20 0 -2 -12 -4 -26 -4 l-26 0 23 20 c29 24 43 25 35 4z
m2794 -10 c0 -8 -4 -12 -10 -9 -5 3 -10 10 -10 16 0 5 5 9 10 9 6 0 10 -7 10
-16z m95 -73 c7 -12 -12 -24 -25 -16 -11 7 -4 25 10 25 5 0 11 -4 15 -9z
m-527 -261 c24 -22 30 -46 10 -34 -23 13 -48 37 -48 46 0 14 15 9 38 -12z
m1679 -12 c-3 -8 -6 -5 -6 6 -1 11 2 17 5 13 3 -3 4 -12 1 -19z m-1632 -58 c3
-5 -1 -10 -9 -10 -8 0 -18 5 -21 10 -3 6 1 10 9 10 8 0 18 -4 21 -10z m482
-26 c16 -5 21 -13 21 -41 0 -23 6 -39 16 -45 36 -20 1 -97 -38 -82 -11 4 -16
1 -16 -10 0 -22 -13 -20 -25 3 -6 10 -29 44 -52 74 -42 54 -52 77 -35 77 4 0
13 -5 19 -11 9 -9 14 -5 19 15 5 21 12 26 38 26 17 0 41 -3 53 -6z m68 -43 c3
-6 -4 -15 -15 -21 -16 -8 -20 -8 -20 3 0 25 23 36 35 18z m-224 -27 l24 -27
-33 17 c-18 9 -30 21 -27 26 8 13 8 13 36 -16z m-3941 -385 c0 -5 -7 -9 -15
-9 -15 0 -20 12 -9 23 8 8 24 -1 24 -14z m-1610 -853 c0 -3 -4 -8 -10 -11 -5
-3 -10 -1 -10 4 0 6 5 11 10 11 6 0 10 -2 10 -4z m-10 -89 c0 -8 -3 -17 -7
-20 -9 -9 -34 13 -27 24 8 14 34 11 34 -4z m-94 -212 c-12 -26 -36 -29 -36 -5
0 21 5 26 28 26 15 0 16 -4 8 -21z m29 -45 c3 -5 2 -10 -4 -10 -5 0 -13 5 -16
10 -3 6 -2 10 4 10 5 0 13 -4 16 -10z m25 -49 c0 -10 -7 -24 -15 -31 -16 -13
-18 -8 -9 28 8 27 24 29 24 3z m-10 -101 c0 -5 -4 -10 -10 -10 -5 0 -10 5 -10
10 0 6 5 10 10 10 6 0 10 -4 10 -10z m6490 -270 c-6 -22 -15 -38 -20 -35 -15
9 -12 40 8 81 14 31 18 34 20 16 2 -11 -2 -39 -8 -62z m-6524 58 c4 -6 3 -8
-4 -4 -5 3 -13 0 -15 -6 -3 -8 -6 -6 -6 5 -1 19 14 23 25 5z m-31 -188 c6 -9
-24 -64 -31 -57 -2 2 -1 18 2 35 7 32 18 40 29 22z m-348 -522 c-3 -7 -5 -2
-5 12 0 14 2 19 5 13 2 -7 2 -19 0 -25z m63 -9 c0 -6 -5 -20 -12 -32 -17 -32
-37 -160 -27 -171 14 -15 11 -58 -3 -54 -7 3 -17 31 -21 63 -7 51 -5 67 20
132 25 65 43 92 43 62z m60 -206 c0 -20 -3 -24 -11 -16 -7 7 -9 19 -6 27 10
24 17 19 17 -11z m280 -23 c0 -5 -5 -10 -11 -10 -5 0 -7 5 -4 10 3 6 8 10 11
10 2 0 4 -4 4 -10z m180 -4 c0 -29 -13 -46 -34 -45 -16 1 -17 2 -3 6 10 3 17
14 17 29 0 13 5 24 10 24 6 0 10 -6 10 -14z m9 -93 c0 -17 -3 -22 -6 -13 -4 8
-13 20 -22 27 -14 11 -13 12 7 13 18 0 22 -5 21 -27z m-572 -35 c-3 -7 -5 -2
-5 12 0 14 2 19 5 13 2 -7 2 -19 0 -25z m533 3 c0 -5 -7 -11 -15 -15 -15 -5
-20 5 -8 17 9 10 23 9 23 -2z m118 -18 c-3 -18 -53 -26 -53 -8 0 6 5 10 12 10
6 0 15 4 19 8 13 13 26 7 22 -10z m-98 -17 c0 -3 -4 -8 -10 -11 -5 -3 -10 -1
-10 4 0 6 5 11 10 11 6 0 10 -2 10 -4z m50 -26 c0 -5 -5 -10 -11 -10 -5 0 -7
5 -4 10 3 6 8 10 11 10 2 0 4 -4 4 -10z m-250 -40 c0 -5 -2 -10 -4 -10 -3 0
-8 5 -11 10 -3 6 -1 10 4 10 6 0 11 -4 11 -10z m-313 -78 c5 -21 -11 -52 -21
-41 -2 2 -6 27 -10 54 -6 47 -6 49 9 30 9 -11 18 -30 22 -43z m629 -11 c-4 -5
-13 -8 -22 -4 -11 4 -12 8 -3 20 14 16 36 2 25 -16z m84 -81 c0 -5 -2 -10 -4
-10 -3 0 -8 5 -11 10 -3 6 -1 10 4 10 6 0 11 -4 11 -10z m-706 -36 c13 -34 10
-46 -50 -223 -3 -10 -8 -11 -15 -4 -15 15 8 191 30 220 19 27 27 28 35 7z
m2568 -157 c-6 -6 -12 -27 -14 -46 -3 -36 -28 -57 -28 -24 0 11 -4 23 -9 29
-16 17 5 49 34 52 21 1 25 -1 17 -11z m125 -29 c-3 -7 -5 -2 -5 12 0 14 2 19
5 13 2 -7 2 -19 0 -25z m1133 22 c0 -5 -2 -10 -4 -10 -3 0 -8 5 -11 10 -3 6
-1 10 4 10 6 0 11 -4 11 -10z m-3831 -78 l-22 -27 7 27 c3 15 11 40 18 55 l12
28 4 -28 c2 -17 -4 -37 -19 -55z m2631 38 c0 -5 -7 -10 -15 -10 -8 0 -15 5
-15 10 0 6 7 10 15 10 8 0 15 -4 15 -10z m-120 -18 c0 -10 -41 -35 -47 -28 -9
8 17 36 33 36 8 0 14 -3 14 -8z m47 -38 c-3 -3 -12 -4 -19 -1 -8 3 -5 6 6 6
11 1 17 -2 13 -5z m1042 -58 c15 -61 14 -96 -3 -96 -17 0 -39 81 -30 115 9 37
20 30 33 -19z m-3590 -29 c0 -18 -4 -41 -9 -52 -6 -14 -9 -4 -9 38 -1 36 3 56
9 52 6 -3 10 -21 9 -38z m28 11 c-3 -7 -5 -2 -5 12 0 14 2 19 5 13 2 -7 2 -19
0 -25z m3251 18 c34 1 62 -2 62 -6 0 -4 -12 -24 -26 -45 -22 -33 -25 -45 -19
-84 7 -42 8 -44 17 -21 5 14 16 30 25 37 8 7 17 23 18 36 4 30 32 75 56 87 29
16 49 12 49 -10 0 -23 4 -24 31 -9 19 10 20 8 13 -40 -6 -44 -4 -53 15 -68 11
-10 27 -43 35 -73 8 -30 19 -66 25 -80 9 -20 10 -15 5 33 -6 58 0 67 27 45 29
-24 49 -67 49 -106 0 -31 5 -41 24 -50 17 -8 25 -21 29 -54 3 -23 9 -62 13
-85 6 -38 4 -45 -25 -73 -17 -17 -31 -35 -31 -38 0 -11 64 -8 73 3 5 6 7 0 4
-12 -4 -18 -1 -23 16 -23 21 0 22 4 21 113 0 61 -4 133 -9 160 -5 31 -4 47 3
47 13 0 22 -24 22 -61 0 -16 5 -28 11 -27 6 2 18 -19 26 -46 12 -41 12 -54 1
-80 -7 -17 -11 -37 -10 -45 2 -8 -1 -17 -6 -20 -16 -10 -19 -46 -3 -46 8 0 20
21 28 50 25 83 25 82 30 65 3 -8 7 -21 9 -29 7 -22 16 -5 21 41 6 49 11 58 22
39 6 -9 12 -3 20 21 12 32 12 32 28 13 14 -18 15 -15 9 48 -4 37 -3 67 2 67
20 0 72 -86 72 -119 0 -27 16 -27 23 0 8 32 24 15 41 -45 26 -89 20 -129 -27
-178 -14 -15 -21 -16 -36 -6 -10 6 -27 8 -37 4 -16 -6 -16 -9 -4 -16 8 -6 26
-10 40 -11 21 -1 22 -2 5 -6 -11 -3 -25 -9 -32 -15 -15 -12 -53 7 -53 28 0 8
-9 24 -19 36 l-20 20 6 -21 c4 -17 1 -21 -20 -21 -14 0 -29 -4 -32 -10 -3 -5
-11 -10 -16 -10 -6 0 -8 4 -4 9 3 5 -11 15 -30 21 -31 10 -42 9 -80 -9 -52
-24 -61 -26 -69 -8 -3 9 -8 8 -18 -4 -13 -16 -43 -15 -32 2 3 5 0 9 -5 9 -26
0 -8 18 24 24 44 9 53 23 15 24 -18 0 -38 -8 -53 -24 -20 -19 -31 -23 -54 -18
-15 3 -36 6 -46 5 -10 0 -21 7 -24 15 -7 19 -23 18 -23 -2 0 -11 -6 -14 -22
-8 -13 4 -25 9 -28 13 -3 3 -24 7 -48 8 -24 1 -50 7 -57 13 -12 10 -16 9 -21
-4 -6 -16 -44 -22 -57 -10 -4 4 -20 8 -37 9 -28 3 -34 -4 -31 -31 1 -6 -12
-11 -29 -10 -27 1 -30 4 -25 23 6 26 -21 45 -53 36 -14 -3 -22 -1 -22 7 0 7
-8 10 -20 7 -12 -3 -23 1 -29 10 -7 13 -11 13 -31 2 -18 -11 -24 -11 -27 -1
-6 17 -33 15 -33 -2 0 -11 -9 -13 -37 -9 -36 6 -43 10 -62 42 -7 11 -15 12
-39 3 -36 -12 -69 5 -59 32 4 11 1 16 -9 16 -10 0 -14 -6 -10 -15 3 -8 1 -15
-4 -15 -15 0 -11 81 4 110 13 22 12 28 -7 54 l-21 29 30 24 c16 12 34 21 40
19 13 -5 47 32 39 43 -2 5 2 14 10 21 8 7 15 9 15 4 0 -4 7 1 15 12 14 18 16
18 29 2 20 -26 26 -22 26 17 0 19 4 35 10 35 5 0 19 18 30 40 11 22 17 40 13
40 -4 0 2 7 13 15 26 20 50 19 59 -2 6 -16 10 -14 32 12 18 21 36 30 61 32 19
1 39 8 46 16 15 20 37 26 61 19 11 -4 48 -6 83 -6z m-258 -36 c0 -5 -4 -10
-10 -10 -5 0 -10 5 -10 10 0 6 5 10 10 10 6 0 10 -4 10 -10z m-2983 -157 c-3
-10 -5 -2 -5 17 0 19 2 27 5 18 2 -10 2 -26 0 -35z m563 8 c0 -5 -7 -12 -16
-15 -22 -9 -24 -8 -24 9 0 8 9 15 20 15 11 0 20 -4 20 -9z m3331 -24 c-8 -8
-11 -7 -11 4 0 9 3 19 7 23 4 4 9 2 11 -4 3 -7 -1 -17 -7 -23z m302 3 c-3 -11
-7 -20 -9 -20 -2 0 -4 9 -4 20 0 11 4 20 9 20 5 0 7 -9 4 -20z m-311 -127 c6
-7 7 -21 3 -30 -7 -17 -8 -16 -15 2 -5 11 -8 36 -8 55 1 27 2 29 5 10 3 -14 9
-31 15 -37z m378 26 c0 -5 -4 -9 -10 -9 -5 0 -10 7 -10 16 0 8 5 12 10 9 6 -3
10 -10 10 -16z m-613 -21 c-3 -8 -6 -5 -6 6 -1 11 2 17 5 13 3 -3 4 -12 1 -19z
m-3617 -70 c0 -16 -4 -28 -9 -28 -9 0 -21 49 -21 84 1 20 2 20 15 -4 8 -14 14
-37 15 -52z m3680 19 c0 -18 -2 -19 -10 -7 -13 20 -13 43 0 35 6 -3 10 -16 10
-28z m-3051 -40 c1 -5 -3 -5 -9 -2 -5 3 -10 16 -9 28 0 21 1 21 9 2 5 -11 9
-24 9 -28z m3181 9 c0 -14 -4 -28 -10 -31 -6 -4 -10 7 -10 24 0 17 5 31 10 31
6 0 10 -11 10 -24z m890 6 c0 -10 6 -24 13 -32 6 -8 2 -6 -10 4 -24 20 -31 46
-13 46 6 0 10 -8 10 -18z m1834 -7 c-4 -8 -8 -15 -10 -15 -2 0 -4 7 -4 15 0 8
4 15 10 15 5 0 7 -7 4 -15z m-5874 -15 c0 -5 -2 -10 -4 -10 -3 0 -8 5 -11 10
-3 6 -1 10 4 10 6 0 11 -4 11 -10z m3455 -40 c4 -16 18 -46 31 -66 14 -20 23
-39 20 -42 -3 -3 -2 -10 3 -16 14 -19 20 -72 12 -102 -8 -26 -9 -27 -16 -9 -5
11 -13 26 -19 34 -6 7 -11 19 -12 25 0 6 -2 19 -2 29 -1 9 -8 17 -16 17 -8 0
-17 12 -20 28 -11 51 -16 113 -11 123 11 17 23 9 30 -21z m2401 8 c-3 -13 -6
-29 -6 -35 0 -7 -4 -13 -10 -13 -11 0 -14 53 -3 63 14 15 25 6 19 -15z m-179
-20 c-3 -7 -5 -2 -5 12 0 14 2 19 5 13 2 -7 2 -19 0 -25z m-5477 -2 c0 -3 -4
-8 -10 -11 -5 -3 -10 -1 -10 4 0 6 5 11 10 11 6 0 10 -2 10 -4z m448 -183
c-16 -37 -45 -31 -33 6 3 12 11 19 16 16 5 -4 9 16 9 44 0 76 14 97 18 26 2
-35 -3 -74 -10 -92z m-458 118 c0 -23 -25 -34 -39 -17 -7 9 -7 16 1 24 18 18
38 14 38 -7z m5587 -93 c-3 -7 -5 -2 -5 12 0 14 2 19 5 13 2 -7 2 -19 0 -25z
m-4577 -21 c19 -9 31 -17 26 -17 -19 0 48 -60 67 -60 11 0 21 -9 24 -21 4 -12
17 -22 34 -26 23 -4 30 -12 35 -40 5 -27 12 -35 34 -39 22 -5 26 -10 22 -30
-4 -24 11 -33 23 -14 9 14 26 12 23 -2 -4 -19 89 -109 106 -102 8 3 16 -4 20
-19 5 -23 10 -24 68 -22 35 1 68 -2 73 -6 6 -4 21 -9 35 -11 19 -2 24 -8 22
-25 -4 -30 9 -29 42 2 24 23 25 25 7 25 -29 0 -35 17 -8 23 12 4 25 5 28 4 4
-1 16 6 27 16 19 17 20 17 26 0 5 -11 1 -22 -11 -31 -16 -13 -16 -13 7 -7 30
9 40 22 40 53 0 25 0 25 34 12 20 -7 26 -6 26 5 0 23 20 28 40 10 18 -16 20
-16 26 -2 3 9 14 19 25 22 26 9 24 23 -6 37 -14 6 -25 19 -25 29 0 17 -26 26
-78 27 -28 1 -67 37 -82 76 -15 42 1 62 57 71 26 4 54 12 61 18 9 7 16 7 24
-1 16 -16 26 -15 30 2 2 12 12 10 52 -9 49 -24 49 -24 74 -4 28 22 52 25 53 7
0 -7 2 -8 5 -3 3 8 213 12 249 5 6 -2 33 -2 61 0 46 1 51 -1 63 -27 12 -27 13
-27 27 -8 14 19 27 20 176 20 109 0 165 -3 173 -11 6 -6 30 -21 53 -33 34 -17
42 -27 42 -49 0 -47 -19 -97 -49 -131 -29 -32 -45 -34 -101 -14 -21 8 -83 3
-95 -7 -6 -5 -9 -27 -7 -49 l4 -39 90 2 c57 2 93 7 97 15 5 8 18 10 36 5 18
-4 30 -2 35 6 9 15 130 23 130 9 0 -5 5 -9 11 -9 14 0 59 -47 59 -62 0 -5 8
-7 17 -4 15 6 16 5 1 -11 -16 -19 -13 -42 6 -55 19 -13 24 -9 19 12 -4 14 0
20 12 20 12 0 16 6 12 20 -3 11 -2 18 3 15 13 -8 18 -53 7 -64 -8 -8 -6 -11 5
-11 17 0 28 20 28 51 0 10 5 19 10 19 6 0 10 7 10 15 0 18 1 18 35 5 20 -8 35
-5 70 11 24 11 49 27 56 35 7 8 30 14 60 14 40 0 49 3 54 21 5 14 10 18 17 11
5 -5 28 -7 50 -4 31 4 44 1 53 -12 10 -13 18 -14 39 -6 35 13 36 13 36 -6 0
-9 9 -18 20 -21 11 -3 20 -13 20 -22 0 -9 5 -22 11 -28 7 -7 12 -25 13 -40 1
-31 36 -48 36 -18 0 9 9 19 20 22 11 3 20 10 20 17 0 6 5 3 11 -7 11 -19 3
-77 -11 -77 -13 0 -35 -78 -25 -88 4 -4 10 -1 12 6 3 6 9 10 14 6 5 -3 9 0 9
7 0 8 4 8 15 -1 8 -7 15 -22 15 -33 0 -20 0 -20 -15 -1 -13 17 -14 15 -15 -33
0 -50 2 -53 25 -53 17 0 26 7 29 23 3 12 7 31 9 42 3 11 5 -3 6 -32 1 -45 4
-52 24 -55 17 -2 24 -13 33 -48 8 -33 15 -44 28 -42 10 2 16 -4 16 -16 0 -10
9 -29 20 -42 25 -29 27 -95 4 -104 -9 -4 -14 -9 -12 -12 3 -3 2 -20 -2 -39 -4
-19 -5 -34 -1 -33 21 2 31 -4 31 -22 0 -11 7 -20 15 -20 8 0 15 -7 15 -15 0
-10 -7 -15 -17 -13 -27 4 -17 -43 13 -65 13 -10 24 -25 24 -33 0 -8 5 -14 10
-14 6 0 10 -17 10 -37 0 -25 -3 -33 -9 -25 -7 11 -10 10 -15 -3 -3 -9 -6 -25
-6 -36 0 -20 -47 -101 -61 -107 -5 -2 -9 -11 -9 -21 0 -21 -57 -91 -75 -91 -7
0 -15 -18 -19 -44 -4 -24 -13 -47 -21 -49 -7 -3 -16 -21 -21 -39 -4 -18 -9
-27 -11 -20 -3 6 -10 12 -17 12 -21 0 -59 -38 -53 -53 5 -14 0 -16 -53 -19
-29 -1 -30 -3 -24 -37 4 -20 6 -38 6 -41 0 -28 -4 -32 -28 -26 -14 4 -23 3
-20 -2 2 -4 1 -14 -5 -22 -7 -12 -9 -9 -9 10 -1 22 -2 23 -11 7 -5 -9 -7 -22
-4 -27 9 -14 -4 -70 -16 -70 -4 0 -15 14 -24 30 -19 37 -35 39 -35 5 0 -25
-23 -35 -35 -15 -15 25 -24 6 -18 -37 6 -48 6 -48 -15 -30 -30 27 -57 18 -58
-18 -2 -56 -3 -58 -18 -46 -7 6 -16 26 -20 43 -6 29 -7 30 -20 13 -7 -10 -11
-27 -8 -37 3 -13 -1 -18 -17 -18 -12 0 -24 -7 -27 -15 -9 -22 -20 -10 -28 27
l-7 33 -14 -25 c-8 -14 -17 -47 -21 -74 l-7 -49 -16 40 c-18 46 -51 84 -51 60
0 -8 -7 -17 -15 -21 -9 -3 -15 -18 -15 -39 0 -41 -23 -77 -40 -61 -6 6 -15 33
-19 60 -8 49 -8 49 -19 21 -7 -16 -12 -36 -12 -46 0 -18 -18 -41 -32 -41 -4 0
-8 10 -9 23 0 17 -5 14 -20 -18 -13 -28 -19 -34 -20 -20 -2 55 -19 88 -19 39
0 -17 -6 -39 -14 -50 -14 -18 -15 -18 -22 10 -4 19 -1 46 10 77 22 61 12 82
-20 43 l-23 -29 -1 44 c0 24 -3 41 -7 38 -3 -4 -5 -24 -5 -44 3 -51 -8 -113
-19 -113 -5 0 -9 9 -9 20 0 11 -4 20 -10 20 -5 0 -10 -8 -10 -17 0 -10 -10
-38 -22 -63 l-21 -45 -9 40 c-6 27 -5 52 3 76 9 28 8 41 -1 58 -14 27 -20 23
-30 -21 -3 -18 -12 -32 -18 -31 -6 2 -15 -9 -18 -22 -8 -31 -28 -28 -32 4 -2
14 -9 21 -17 17 -8 -3 -17 3 -20 15 -11 32 -25 21 -25 -20 0 -45 -26 -115 -33
-91 -13 40 -14 89 -1 125 18 52 19 158 2 153 -7 -3 -14 -22 -16 -44 -5 -66
-10 -72 -37 -39 -13 17 -25 28 -28 25 -2 -3 -11 -32 -19 -65 -10 -39 -19 -59
-28 -57 -7 2 -16 -1 -19 -7 -4 -7 -15 -6 -31 2 -21 11 -26 23 -35 86 -10 72
-24 87 -26 27 0 -23 -6 -12 -24 44 l-24 75 0 -62 c-1 -63 -7 -73 -29 -51 -13
13 -18 -20 -13 -98 3 -45 -13 -67 -24 -34 -8 25 -17 25 -33 0 -14 -24 -37 -27
-28 -4 3 8 2 13 -3 10 -12 -8 -23 41 -15 67 6 22 6 22 -16 -1 -18 -19 -20 -30
-15 -62 4 -26 3 -40 -4 -40 -6 0 -11 10 -11 23 0 12 -6 31 -14 42 -7 11 -16
32 -20 48 -5 20 -12 27 -32 27 -13 0 -27 -7 -31 -16 -9 -25 -53 53 -53 96 -1
30 -2 32 -11 17 -6 -11 -8 -34 -4 -54 5 -27 3 -34 -7 -31 -7 3 -12 12 -10 21
1 9 -7 21 -19 28 -21 11 -22 10 -16 -27 4 -22 10 -52 13 -69 l7 -30 -22 19
c-11 11 -21 24 -21 29 0 6 -12 30 -26 55 -27 46 -44 44 -44 -6 0 -12 -7 -25
-15 -28 -22 -9 -74 15 -86 38 -14 25 -29 12 -38 -32 -5 -26 -14 -34 -44 -45
-38 -13 -39 -13 -33 10 4 17 0 30 -13 42 -13 12 -21 39 -26 78 -8 67 -25 125
-37 125 -4 0 -8 -11 -8 -25 0 -14 5 -25 10 -25 16 0 11 -76 -7 -120 -17 -39
-53 -70 -38 -33 20 52 29 124 17 143 -7 11 -12 27 -12 36 0 8 -6 14 -12 11 -7
-2 -12 -12 -10 -22 2 -10 -1 -28 -6 -39 -6 -12 -15 -34 -19 -50 -5 -17 -15
-32 -21 -34 -16 -5 -16 50 0 66 6 6 8 15 4 19 -13 14 -26 -22 -26 -74 0 -42
-3 -51 -15 -47 -11 5 -15 24 -15 79 0 83 -13 102 -34 52 -20 -49 -35 -54 -47
-17 -7 20 -16 29 -25 26 -10 -4 -14 2 -14 18 0 13 -7 29 -15 36 -12 10 -16 8
-25 -15 -5 -14 -10 -34 -10 -43 -1 -31 -29 31 -30 64 0 29 -15 54 -32 54 -5 0
-8 -8 -6 -17 2 -10 -4 -19 -13 -21 -19 -3 -54 61 -45 83 3 8 1 17 -4 20 -6 4
-10 1 -10 -4 0 -6 -4 -11 -10 -11 -13 0 -13 57 0 62 5 2 13 18 16 37 5 25 4
32 -4 27 -7 -4 -12 -18 -12 -32 0 -17 -5 -24 -20 -24 -11 0 -20 4 -20 8 0 4
-14 16 -31 26 -22 13 -27 21 -19 26 7 4 9 13 6 19 -10 16 -26 14 -26 -4 0 -8
-4 -15 -8 -15 -15 0 -32 24 -32 45 0 12 -5 26 -12 33 -9 9 -9 15 0 24 14 14
16 52 2 43 -5 -3 -10 -15 -10 -26 0 -10 -5 -19 -11 -19 -7 0 -9 10 -7 25 3 16
1 25 -7 25 -17 0 -27 27 -14 36 6 3 7 19 3 37 -4 18 -7 43 -6 56 1 13 -6 30
-15 37 -24 18 -31 17 -37 -3 -4 -15 -5 -14 -4 2 1 24 -12 57 -25 67 -6 3 -11
22 -11 42 -1 20 -7 41 -14 48 -7 7 -12 22 -12 35 0 13 -4 23 -9 23 -5 0 -11
10 -13 23 -2 12 -9 21 -15 20 -18 -4 -26 36 -11 54 9 12 9 15 1 9 -7 -4 -13
-2 -13 3 0 6 6 11 13 11 6 1 -1 8 -16 16 -25 13 -28 20 -21 42 4 15 8 83 10
152 1 69 3 129 3 135 1 5 8 -1 17 -13 40 -57 41 4 1 86 -20 42 -20 42 -1 58
10 8 31 20 47 25 24 10 27 16 27 54 0 24 -4 47 -10 50 -11 7 -14 68 -3 79 4 3
7 55 8 114 1 115 9 152 30 152 7 0 27 14 43 30 18 17 41 30 56 30 13 0 28 5
32 11 3 6 9 7 13 2 3 -5 22 -16 41 -26z m-662 -60 c2 -15 14 -39 26 -52 14
-15 26 -44 30 -71 3 -26 11 -53 17 -60 6 -7 12 -29 14 -49 2 -21 12 -45 24
-56 11 -11 24 -31 27 -45 8 -30 -1 -103 -13 -115 -11 -11 -73 17 -73 32 0 5
-6 9 -14 9 -7 0 -19 7 -27 16 -10 12 -10 20 -1 35 10 16 10 21 -3 25 -8 4 -15
12 -15 20 0 12 -8 16 -30 16 -3 0 -16 -3 -30 -7 -23 -7 -24 -6 -10 11 23 28
19 58 -7 62 -23 3 -31 26 -14 36 5 3 12 23 16 43 10 53 16 59 31 32 13 -24 13
-23 14 11 1 71 13 141 24 137 6 -2 12 -16 14 -30z m5232 -21 c0 -24 -9 -63
-20 -87 -23 -53 -26 -32 -9 68 13 73 29 84 29 19z m-1390 -63 c0 -68 -5 -66
-14 5 -4 33 -3 52 4 52 6 0 10 -24 10 -57z m-4878 -55 c6 -50 -8 -74 -17 -32
-4 16 -9 35 -11 42 -2 8 -2 18 2 23 12 20 22 7 26 -33z m3766 20 c-11 -33 -88
-35 -88 -3 0 11 12 15 46 15 31 0 44 -4 42 -12z m-2308 -17 c0 -6 -4 -13 -10
-16 -5 -3 -10 1 -10 9 0 9 5 16 10 16 6 0 10 -4 10 -9z m4711 -124 c-13 -13
-15 21 -3 50 6 15 8 13 10 -11 2 -16 -1 -33 -7 -39z m-3683 8 c-3 -3 -9 2 -12
12 -6 14 -5 15 5 6 7 -7 10 -15 7 -18z m-58 -5 c0 -5 -4 -10 -10 -10 -5 0 -10
5 -10 10 0 6 5 10 10 10 6 0 10 -4 10 -10z m27 -22 c-3 -8 -6 -5 -6 6 -1 11 2
17 5 13 3 -3 4 -12 1 -19z m-1697 -8 c0 -5 -2 -10 -4 -10 -3 0 -8 5 -11 10 -3
6 -1 10 4 10 6 0 11 -4 11 -10z m2740 -14 c0 -8 -4 -17 -9 -21 -12 -7 -24 12
-16 25 9 15 25 12 25 -4z m525 -6 c3 -5 1 -10 -4 -10 -6 0 -11 5 -11 10 0 6 2
10 4 10 3 0 8 -4 11 -10z m-3065 -51 c0 -23 -16 -25 -24 -3 -10 25 -7 34 9 28
8 -4 15 -15 15 -25z m2910 21 c0 -5 -7 -10 -16 -10 -8 0 -12 5 -9 10 3 6 10
10 16 10 5 0 9 -4 9 -10z m-2998 -195 c-5 -29 -23 -32 -48 -7 -17 16 -17 17 2
20 10 2 23 8 28 13 15 14 24 1 18 -26z m168 13 c0 -19 -2 -20 -10 -8 -13 19
-13 30 0 30 6 0 10 -10 10 -22z m4582 -60 c-7 -7 -12 -8 -13 -2 0 5 -2 18 -4
28 -3 18 -2 18 13 3 13 -13 14 -19 4 -29z m-4742 -12 c0 -18 40 -28 46 -11 5
12 23 11 63 -1 11 -4 11 -7 0 -21 -12 -14 -12 -16 2 -11 9 4 30 -2 47 -12 27
-17 31 -24 29 -57 -2 -41 -30 -59 -41 -26 -8 25 -57 47 -68 31 -8 -14 -26 4
-54 55 -13 24 -18 26 -30 16 -22 -18 -39 3 -25 30 13 24 31 28 31 7z m4665
-17 c-10 -15 -25 -10 -19 6 4 8 10 12 15 9 5 -3 7 -10 4 -15z m462 -71 c-9
-18 -18 -44 -21 -58 -15 -72 -30 -120 -38 -120 -21 0 2 141 28 171 8 8 19 31
26 50 11 29 13 31 16 12 2 -12 -3 -37 -11 -55z m-515 8 c-8 -14 -20 27 -14 44
4 11 8 8 12 -10 4 -14 5 -29 2 -34z m-4347 -4 c-6 -7 -34 29 -34 43 0 6 9 -1
20 -14 11 -13 17 -26 14 -29z m215 14 c0 -8 -4 -18 -10 -21 -5 -3 -10 3 -10
14 0 12 5 21 10 21 6 0 10 -6 10 -14z m-563 -68 c-3 -8 -6 -5 -6 6 -1 11 2 17
5 13 3 -3 4 -12 1 -19z m4660 -10 c-3 -7 -5 -2 -5 12 0 14 2 19 5 13 2 -7 2
-19 0 -25z m-4347 -24 c3 -21 14 -51 24 -66 10 -16 14 -28 9 -28 -5 0 -16 12
-24 28 -19 38 -33 45 -41 22 -4 -11 -16 -20 -26 -20 -22 0 -45 23 -35 34 4 4
0 4 -10 0 -13 -4 -17 -1 -17 15 0 25 6 26 26 6 18 -17 44 -20 44 -4 0 5 5 7
10 4 6 -4 10 7 10 25 0 45 24 33 30 -16z m3884 6 c8 -16 12 -30 10 -30 -9 0
-30 24 -37 43 -11 29 11 19 27 -13z m-4564 -55 c0 -8 -8 -15 -19 -15 -14 0
-21 10 -25 35 -4 20 -4 40 0 46 7 12 44 -43 44 -66z m5410 18 c0 -5 -5 -15
-10 -23 -8 -12 -10 -11 -10 8 0 12 5 22 10 22 6 0 10 -3 10 -7z m-5470 -48 c0
-8 -2 -15 -4 -15 -2 0 -6 7 -10 15 -3 8 -1 15 4 15 6 0 10 -7 10 -15z m5504
-86 c-5 -40 -9 -48 -15 -34 -12 30 -10 70 3 83 18 18 20 9 12 -49z m12 -80
c-12 -28 -15 -30 -15 -12 -1 29 23 83 27 61 2 -9 -4 -31 -12 -49z m-966 -125
c0 -8 -4 -12 -10 -9 -5 3 -10 13 -10 21 0 8 5 12 10 9 6 -3 10 -13 10 -21z
m-3206 -500 c3 -8 2 -12 -4 -9 -6 3 -10 10 -10 16 0 14 7 11 14 -7z m749 -423
c6 -47 5 -53 -8 -40 -10 10 -12 27 -8 57 3 23 7 41 8 40 1 -2 5 -27 8 -57z
m831 -78 c-3 -23 -9 -41 -13 -38 -10 6 -14 102 -5 117 13 20 25 -33 18 -79z
m-744 21 c0 -21 -4 -33 -10 -29 -5 3 -10 19 -10 36 0 16 5 29 10 29 6 0 10
-16 10 -36z m80 -35 c0 -10 9 -28 21 -40 19 -19 19 -23 6 -36 -13 -14 -16 -13
-22 6 -3 11 -11 21 -16 21 -5 0 -9 18 -9 41 0 24 4 38 10 34 6 -3 10 -15 10
-26z m647 -71 c-3 -7 -5 -2 -5 12 0 14 2 19 5 13 2 -7 2 -19 0 -25z m-77 2 c0
-5 -2 -10 -4 -10 -3 0 -8 5 -11 10 -3 6 -1 10 4 10 6 0 11 -4 11 -10z m-283
-72 c-3 -7 -5 -2 -5 12 0 14 2 19 5 13 2 -7 2 -19 0 -25z m1723 -628 c0 -5 -4
-10 -9 -10 -6 0 -13 5 -16 10 -3 6 1 10 9 10 9 0 16 -4 16 -10z m-70 -190 c0
-5 -7 -10 -16 -10 -8 0 -12 5 -9 10 3 6 10 10 16 10 5 0 9 -4 9 -10z m-47 -30
c-3 -11 -9 -20 -14 -20 -11 0 -11 3 -3 24 9 23 23 20 17 -4z m-113 -135 c0 -8
-4 -15 -10 -15 -5 0 -10 7 -10 15 0 8 5 15 10 15 6 0 10 -7 10 -15z m121 -98
c-13 -13 -26 -3 -16 12 3 6 11 8 17 5 6 -4 6 -10 -1 -17z m-2071 -62 c14 -16
10 -18 -14 -9 -9 3 -16 10 -16 15 0 14 16 11 30 -6z m-46 -20 c-7 -16 -24 -21
-24 -6 0 8 7 13 27 20 1 1 0 -6 -3 -14z m1276 -76 c0 -4 -4 -11 -10 -14 -5 -3
-10 -1 -10 4 0 6 -9 11 -20 11 -19 0 -27 19 -14 33 7 7 54 -22 54 -34z m-795
-19 c10 -11 16 -23 13 -25 -9 -10 -58 17 -58 32 0 19 24 16 45 -7z m455 10 c0
-5 -2 -10 -4 -10 -3 0 -8 5 -11 10 -3 6 -1 10 4 10 6 0 11 -4 11 -10z m-254
-15 c9 -8 11 -15 6 -15 -5 0 -15 7 -22 15 -7 8 -9 15 -6 15 4 0 14 -7 22 -15z
m-151 -5 c3 -5 1 -10 -4 -10 -6 0 -11 5 -11 10 0 6 2 10 4 10 3 0 8 -4 11 -10z
m615 0 c0 -5 -2 -10 -4 -10 -3 0 -8 5 -11 10 -3 6 -1 10 4 10 6 0 11 -4 11
-10z m-440 -36 c0 -8 -5 -12 -10 -9 -6 4 -8 11 -5 16 9 14 15 11 15 -7z m1315
-42 c-8 -9 -35 20 -28 31 4 6 11 3 19 -8 8 -10 12 -21 9 -23z m455 -21 c0 -5
-7 -12 -15 -15 -13 -5 -14 -10 -5 -27 16 -29 -10 -58 -46 -51 -16 3 -29 -1
-35 -9 -7 -11 -10 -12 -21 -1 -11 11 -10 15 6 24 15 8 16 12 5 19 -10 6 -11
11 -3 19 9 9 16 6 27 -10 9 -12 20 -19 27 -15 8 5 8 10 -1 21 -9 11 -6 16 15
24 14 5 26 14 26 20 0 5 5 10 10 10 6 0 10 -4 10 -9z m-582 -375 c3 -12 -1
-17 -10 -14 -7 3 -15 13 -16 22 -3 12 1 17 10 14 7 -3 15 -13 16 -22z m2 -67
c0 -5 -4 -9 -10 -9 -5 0 -10 7 -10 16 0 8 5 12 10 9 6 -3 10 -10 10 -16z
m-2822 -138 c7 -9 11 -27 9 -41 -7 -37 -56 -230 -67 -264 -5 -16 -17 -86 -26
-155 -18 -140 -31 -190 -35 -131 -3 41 -2 49 6 110 3 25 8 79 11 120 4 41 11
80 15 86 32 40 65 223 43 231 -13 4 -74 -82 -74 -104 0 -7 -4 -13 -9 -13 -5 0
-12 -10 -16 -22 l-8 -23 -4 24 c-3 13 -1 26 4 30 12 9 50 91 64 138 11 40 13
42 43 36 17 -3 37 -13 44 -22z m3664 -101 c19 -20 30 -50 18 -50 -6 0 -10 7
-10 16 0 8 -4 12 -10 9 -5 -3 -10 -26 -10 -50 0 -80 -22 -61 -45 38 -10 48 24
70 57 37z m-67 -129 c2 -48 1 -52 -11 -36 -14 18 -14 18 -14 -1 0 -11 5 -25
11 -31 9 -9 5 -20 -12 -45 l-24 -33 -9 38 c-9 35 -26 51 -26 25 0 -7 -7 -26
-15 -42 l-15 -28 25 16 c14 9 25 12 25 6 0 -5 -4 -10 -10 -10 -5 0 -10 -15
-10 -33 0 -39 -51 -100 -76 -90 -8 3 -13 11 -10 18 2 6 -6 25 -20 41 l-23 29
-1 -42 c0 -24 -4 -43 -9 -43 -15 0 -36 -63 -36 -110 0 -41 -2 -45 -22 -42 -19
3 -23 -1 -23 -24 0 -26 -35 -94 -48 -94 -4 0 -22 -23 -41 -51 -25 -38 -38 -50
-52 -46 -12 3 -20 -2 -24 -14 -8 -25 -25 -14 -25 16 0 13 -4 27 -10 30 -6 4
-3 16 7 31 13 20 14 30 4 50 -17 39 -13 68 14 94 25 23 25 23 40 4 14 -18 14
-18 15 9 0 21 14 42 54 80 29 29 80 86 111 127 32 41 63 80 69 85 6 6 29 34
50 63 21 28 42 52 47 52 5 0 24 20 41 45 28 39 33 43 42 28 5 -10 10 -42 11
-72z m-3772 -168 c-2 -27 -8 -68 -13 -93 -22 -114 -22 -120 -1 -120 28 0 71
-21 71 -35 0 -18 -22 -35 -45 -35 -55 0 -66 63 -38 232 17 107 34 140 26 51z
m3577 -134 c0 -5 -4 -9 -10 -9 -5 0 -10 7 -10 16 0 8 5 12 10 9 6 -3 10 -10
10 -16z m-3856 -157 c14 -46 26 -90 26 -98 0 -8 9 -23 20 -34 23 -23 26 -55 6
-63 -10 -4 -17 4 -21 26 -4 18 -13 39 -20 47 -28 31 -74 244 -46 215 4 -6 20
-47 35 -93z m3520 -64 c16 -61 -3 -146 -27 -121 -4 3 -7 -2 -7 -11 0 -13 -6
-17 -19 -13 -15 3 -21 -4 -30 -33 -6 -21 -18 -43 -25 -50 -12 -9 -17 -4 -27
30 -17 55 -4 75 45 75 37 0 38 1 33 32 -4 20 2 46 15 72 23 46 33 51 42 19z
m-3348 -228 c64 -67 136 -123 190 -148 22 -10 40 -23 42 -30 3 -18 -39 -14
-81 8 -20 11 -43 20 -51 20 -8 0 -29 17 -48 38 -18 22 -45 42 -60 46 -19 4
-30 16 -39 41 -7 19 -21 37 -31 41 -21 6 -33 46 -23 71 5 16 11 13 37 -17 17
-19 46 -51 64 -70z m531 18 c-3 -8 -6 -5 -6 6 -1 11 2 17 5 13 3 -3 4 -12 1
-19z m2673 -47 c0 -10 -11 -28 -26 -41 -21 -21 -27 -22 -34 -10 -19 30 23 99
47 78 7 -6 13 -18 13 -27z m270 29 c0 -5 -4 -10 -10 -10 -5 0 -10 5 -10 10 0
6 5 10 10 10 6 0 10 -4 10 -10z m-3137 -187 c-7 -2 -19 -2 -25 0 -7 3 -2 5 12
5 14 0 19 -2 13 -5z m2232 -662 c-3 -12 -10 -21 -15 -21 -5 0 -25 -14 -45 -31
-19 -17 -35 -28 -35 -24 0 17 36 66 53 71 16 5 17 8 6 16 -10 7 -8 7 9 3 14
-4 22 -2 22 6 0 7 3 10 6 6 3 -3 3 -15 -1 -26z m-489 -838 c-10 -10 -19 5 -10
18 6 11 8 11 12 0 2 -7 1 -15 -2 -18z"/>
<path d="M10177 12203 c-12 -11 -8 -23 7 -23 7 0 19 7 26 15 10 12 9 15 -7 15
-11 0 -23 -3 -26 -7z"/>
<path d="M7497 11789 c-20 -36 -14 -53 8 -23 8 10 15 15 15 10 0 -6 6 -1 14 9
8 11 12 23 10 27 -10 17 -30 7 -47 -23z"/>
<path d="M9828 11813 c7 -3 16 -2 19 1 4 3 -2 6 -13 5 -11 0 -14 -3 -6 -6z"/>
<path d="M11145 11510 c3 -5 8 -10 11 -10 2 0 4 5 4 10 0 6 -5 10 -11 10 -5 0
-7 -4 -4 -10z"/>
<path d="M7786 11453 c-11 -11 -6 -23 9 -23 8 0 15 4 15 9 0 13 -16 22 -24 14z"/>
<path d="M7100 11280 c0 -5 5 -10 10 -10 6 0 10 5 10 10 0 6 -4 10 -10 10 -5
0 -10 -4 -10 -10z"/>
<path d="M7365 11250 c3 -5 10 -10 16 -10 5 0 9 5 9 10 0 6 -7 10 -16 10 -8 0
-12 -4 -9 -10z"/>
<path d="M7210 11239 c0 -6 -7 -8 -16 -5 -8 3 -13 2 -10 -3 3 -5 16 -11 29
-13 20 -4 23 -1 19 14 -5 19 -22 25 -22 7z"/>
<path d="M11455 11221 c-6 -11 9 -23 19 -14 9 9 7 23 -3 23 -6 0 -12 -4 -16
-9z"/>
<path d="M6346 11205 c4 -8 8 -15 10 -15 2 0 4 7 4 15 0 8 -4 15 -10 15 -5 0
-7 -7 -4 -15z"/>
<path d="M6210 11004 c0 -14 3 -14 15 -4 8 7 15 14 15 16 0 2 -7 4 -15 4 -8 0
-15 -7 -15 -16z"/>
<path d="M6085 10960 c3 -5 10 -10 16 -10 5 0 9 5 9 10 0 6 -7 10 -16 10 -8 0
-12 -4 -9 -10z"/>
<path d="M6274 10937 c-4 -12 3 -27 25 -47 38 -37 47 -37 53 -5 3 14 2 25 -3
25 -4 0 -15 7 -23 16 -15 14 -16 14 -16 0 0 -9 -5 -16 -11 -16 -5 0 -8 4 -5 8
2 4 1 14 -4 22 -7 12 -10 11 -16 -3z"/>
<path d="M10017 10929 c-49 -6 -118 -21 -155 -35 -37 -14 -78 -28 -92 -31 -24
-6 -69 -34 -98 -60 -7 -7 -19 -13 -25 -13 -24 0 -116 -90 -127 -126 -15 -44
-8 -52 24 -30 14 9 32 16 40 16 8 0 16 3 18 8 4 9 94 72 104 72 4 0 20 12 35
26 36 34 60 26 58 -18 -4 -71 23 -160 63 -208 25 -29 94 -68 133 -75 22 -4 45
-11 52 -16 7 -6 34 -6 75 1 81 14 160 67 203 136 28 46 30 55 30 151 0 55 4
99 8 96 9 -5 58 -13 89 -14 10 0 23 -9 28 -20 6 -10 20 -19 30 -19 11 0 28 -9
37 -20 10 -11 23 -20 30 -20 6 0 20 -13 30 -30 22 -37 30 -38 44 -2 l11 27 10
-28 c6 -15 15 -26 22 -24 6 3 19 -2 28 -11 14 -11 21 -12 32 -3 17 14 44 5 48
-16 2 -9 16 -17 34 -19 25 -3 33 1 37 16 4 17 11 20 38 15 39 -7 44 -11 44
-32 0 -22 20 -27 38 -9 8 8 17 12 21 9 3 -4 16 3 27 16 13 14 27 20 40 16 13
-5 19 -2 19 10 0 8 7 18 15 21 8 4 15 15 15 26 0 18 -1 18 -25 1 -13 -10 -25
-24 -25 -30 0 -7 -3 -13 -6 -13 -9 0 -45 40 -67 74 -15 22 -21 25 -33 16 -11
-10 -15 -9 -20 5 -8 19 -92 59 -149 69 -22 4 -45 12 -52 17 -6 6 -30 12 -53
14 -24 3 -47 9 -54 14 -9 7 -161 35 -251 46 -77 9 -305 12 -378 4z m93 -128
c0 -49 -16 -61 -32 -24 -11 27 -12 27 -15 6 -6 -31 -19 -29 -27 2 -8 31 1 48
20 41 7 -3 16 -1 19 4 4 6 13 10 21 10 10 0 14 -12 14 -39z m910 -145 c0 -3
-4 -8 -10 -11 -5 -3 -10 -1 -10 4 0 6 5 11 10 11 6 0 10 -2 10 -4z"/>
<path d="M6705 10915 c-88 -5 -164 -13 -170 -16 -5 -4 -25 -10 -43 -14 -19 -4
-30 -11 -26 -17 5 -7 0 -9 -14 -6 -12 3 -26 0 -32 -7 -6 -7 -20 -11 -31 -8
-11 3 -28 -2 -40 -13 -17 -15 -23 -16 -40 -6 -24 15 -39 8 -39 -19 0 -10 -6
-19 -14 -19 -17 0 -29 27 -15 35 5 4 6 11 3 17 -4 6 0 14 7 19 11 7 10 9 -3 9
-10 0 -18 6 -18 13 0 15 -48 38 -56 26 -3 -5 -2 -14 1 -19 3 -6 -5 -14 -19
-20 -14 -5 -26 -13 -26 -17 0 -14 17 -34 26 -32 19 3 58 -3 47 -7 -7 -3 -10
-11 -7 -19 4 -8 -3 -15 -17 -17 -12 -2 -23 -11 -25 -21 -1 -10 -6 -26 -10 -35
-4 -9 -9 -27 -11 -39 -3 -19 2 -22 34 -25 28 -2 39 -8 42 -23 3 -16 1 -17 -12
-7 -17 14 -33 0 -22 -18 3 -5 -3 -10 -13 -10 -11 0 -22 -9 -25 -21 -5 -18 -8
-19 -26 -7 -11 7 -24 8 -28 4 -4 -5 -2 -11 5 -13 6 -3 12 -13 12 -23 0 -23 17
-36 58 -45 18 -3 39 -14 48 -22 11 -12 18 -13 27 -4 8 8 8 11 -1 11 -26 0 -10
20 24 29 36 10 64 6 64 -10 0 -5 5 -9 11 -9 5 0 8 4 4 9 -3 5 0 13 6 16 6 5
10 0 8 -11 -2 -15 13 -59 27 -82 1 -2 18 -5 38 -7 32 -3 38 0 35 21 0 3 8 12
17 19 16 11 16 15 5 29 -10 12 -10 16 -1 16 8 0 11 12 8 35 l-4 36 61 -4 c50
-2 67 -8 91 -30 16 -15 36 -27 46 -27 9 0 18 -5 20 -12 3 -7 9 -8 18 -3 10 6
9 11 -5 22 -11 7 -13 13 -7 13 7 0 12 7 12 15 0 8 -4 15 -10 15 -5 0 -10 15
-10 33 0 18 -5 38 -12 45 -9 9 -9 12 1 12 8 0 11 6 7 15 -4 11 1 15 18 15 13
0 26 7 30 15 3 8 11 15 18 15 7 0 19 9 26 20 18 30 46 26 38 -5 -31 -125 -7
-204 91 -296 36 -33 68 -58 71 -55 3 3 11 1 18 -5 18 -15 107 -13 184 5 56 12
71 21 103 58 64 71 82 120 82 220 0 49 2 88 4 88 2 0 14 -11 27 -25 13 -14 27
-25 32 -25 22 0 46 -44 51 -92 1 -5 7 -8 15 -8 8 0 16 -6 19 -12 3 -10 11 -10
35 -2 17 7 34 8 39 4 4 -5 22 -10 38 -12 24 -2 30 -7 28 -25 -2 -20 1 -22 26
-17 25 5 29 3 34 -22 3 -16 1 -36 -4 -45 -10 -20 9 -30 57 -33 29 -1 30 0 24
34 -4 25 -11 35 -23 34 -11 -1 -17 6 -17 21 0 82 -295 336 -405 349 -22 2 -40
5 -40 6 0 1 -11 3 -25 6 -14 2 -36 8 -50 14 -24 9 -61 13 -200 25 -124 11
-166 11 -325 0z m-485 -55 c0 -5 -4 -10 -10 -10 -5 0 -10 5 -10 10 0 6 5 10
10 10 6 0 10 -4 10 -10z m10 -90 c-20 -13 -43 -13 -35 0 3 6 16 10 28 10 18 0
19 -2 7 -10z m901 -23 c16 5 19 -1 19 -31 0 -25 -4 -36 -15 -36 -8 0 -15 8
-15 17 0 15 -2 14 -15 -3 -13 -16 -16 -17 -25 -4 -11 17 -13 53 -4 63 4 4 14
3 22 -2 8 -5 23 -6 33 -4z"/>
<path d="M6390 10880 c0 -5 7 -10 16 -10 8 0 12 5 9 10 -3 6 -10 10 -16 10 -5
0 -9 -4 -9 -10z"/>
<path d="M6077 10690 c-3 -12 -14 -20 -27 -20 -14 0 -24 -9 -31 -29 -6 -16
-17 -32 -25 -35 -8 -3 -14 -10 -14 -15 0 -6 7 -8 15 -5 9 4 18 -2 23 -16 8
-21 8 -21 26 -2 15 17 15 23 5 40 -11 18 -10 24 5 41 11 12 30 21 44 21 18 0
23 4 18 16 -3 9 -6 18 -6 20 0 14 -29 0 -33 -16z"/>
<path d="M5890 10585 c0 -8 7 -15 16 -15 14 0 14 3 4 15 -7 8 -14 15 -16 15
-2 0 -4 -7 -4 -15z"/>
<path d="M9443 10559 c-28 -45 -29 -59 -3 -59 25 0 32 17 28 62 l-3 33 -22
-36z"/>
<path d="M5958 10553 c-17 -4 -26 -33 -10 -33 10 1 42 26 42 34 0 6 -5 6 -32
-1z"/>
<path d="M6060 10520 c0 -6 7 -10 15 -10 8 0 15 2 15 4 0 2 -7 6 -15 10 -8 3
-15 1 -15 -4z"/>
<path d="M6270 10484 c0 -8 5 -12 10 -9 6 4 8 11 5 16 -9 14 -15 11 -15 -7z"/>
<path d="M6156 10447 c3 -10 9 -15 12 -12 3 3 0 11 -7 18 -10 9 -11 8 -5 -6z"/>
<path d="M6419 10399 c-8 -36 -2 -92 11 -104 20 -18 52 -3 32 17 -6 6 -12 21
-12 33 -1 17 -28 67 -31 54z"/>
<path d="M5665 10330 c3 -5 13 -10 21 -10 8 0 14 5 14 10 0 6 -9 10 -21 10
-11 0 -17 -4 -14 -10z"/>
<path d="M5770 10325 c0 -8 7 -15 15 -15 8 0 15 7 15 15 0 8 -7 15 -15 15 -8
0 -15 -7 -15 -15z"/>
<path d="M5750 10301 c0 -5 5 -13 10 -16 6 -3 10 -2 10 4 0 5 -4 13 -10 16 -5
3 -10 2 -10 -4z"/>
<path d="M7597 10263 c-9 -9 -9 -43 1 -43 18 1 32 18 26 33 -6 18 -16 21 -27
10z"/>
<path d="M6510 10191 c0 -17 18 -21 24 -6 3 9 0 15 -9 15 -8 0 -15 -4 -15 -9z"/>
<path d="M5643 10123 c-3 -8 0 -19 8 -24 12 -8 12 -10 0 -18 -8 -5 -10 -14 -6
-21 6 -9 13 -6 26 11 15 19 19 21 19 7 0 -9 4 -19 10 -23 5 -3 8 10 7 31 -2
32 -6 39 -30 45 -21 6 -30 4 -34 -8z"/>
<path d="M6653 10113 c9 -2 23 -2 30 0 6 3 -1 5 -18 5 -16 0 -22 -2 -12 -5z"/>
<path d="M5666 9745 c-3 -8 -1 -15 4 -15 6 0 10 7 10 15 0 8 -2 15 -4 15 -2 0
-6 -7 -10 -15z"/>
<path d="M5617 9713 c-4 -3 -7 -14 -7 -24 0 -21 -24 -31 -56 -23 -28 7 -31 -4
-8 -32 8 -10 13 -14 10 -8 -3 6 18 19 46 29 l51 18 19 -23 20 -24 -4 34 c-2
22 -8 35 -18 36 -44 3 -51 5 -45 14 7 11 2 13 -8 3z"/>
<path d="M5675 9580 c-4 -6 3 -10 14 -10 25 0 27 6 6 13 -8 4 -17 2 -20 -3z"/>
<path d="M7887 9162 c-7 -27 9 -50 24 -35 13 13 9 45 -7 50 -6 2 -14 -5 -17
-15z"/>
<path d="M5595 9150 c-3 -5 -1 -10 4 -10 6 0 11 5 11 10 0 6 -2 10 -4 10 -3 0
-8 -4 -11 -10z"/>
<path d="M5630 9080 c0 -5 5 -10 11 -10 5 0 7 5 4 10 -3 6 -8 10 -11 10 -2 0
-4 -4 -4 -10z"/>
<path d="M5680 8936 c0 -8 5 -18 10 -21 6 -3 10 3 10 14 0 12 -4 21 -10 21 -5
0 -10 -6 -10 -14z"/>
<path d="M5960 8673 c0 -22 2 -25 10 -13 13 20 13 40 0 40 -5 0 -10 -12 -10
-27z"/>
<path d="M5908 8645 c2 -14 6 -25 8 -25 2 0 4 11 4 25 0 14 -4 25 -9 25 -4 0
-6 -11 -3 -25z"/>
<path d="M6080 8496 c0 -14 4 -27 9 -31 12 -7 25 31 16 45 -11 18 -25 10 -25
-14z"/>
<path d="M5815 8400 c-3 -5 1 -10 9 -10 9 0 16 5 16 10 0 6 -4 10 -9 10 -6 0
-13 -4 -16 -10z"/>
<path d="M5975 8390 c3 -5 8 -10 11 -10 2 0 4 5 4 10 0 6 -5 10 -11 10 -5 0
-7 -4 -4 -10z"/>
<path d="M5984 8325 c19 -29 20 -36 4 -32 -6 1 -13 -5 -15 -14 -3 -13 2 -15
22 -11 15 2 29 11 32 19 9 24 -14 63 -38 63 -20 0 -21 -1 -5 -25z"/>
<path d="M6157 8333 c-13 -12 -7 -41 9 -47 22 -8 24 -8 24 7 -1 17 -26 48 -33
40z"/>
<path d="M5636 8163 c6 -31 11 -39 20 -30 9 9 -4 57 -16 57 -5 0 -6 -12 -4
-27z"/>
<path d="M7561 8134 c0 -11 3 -14 6 -6 3 7 2 16 -1 19 -3 4 -6 -2 -5 -13z"/>
<path d="M11432 7910 c-17 -55 -27 -154 -17 -177 6 -15 10 -11 26 22 10 22 19
34 19 28 0 -7 5 -13 10 -13 12 0 2 52 -11 60 -4 3 -9 32 -11 63 l-3 58 -13
-41z"/>
<path d="M5860 7884 c0 -12 4 -14 13 -7 6 6 19 13 27 16 9 3 3 6 -12 6 -20 1
-28 -4 -28 -15z"/>
<path d="M6290 7654 c0 -14 4 -23 9 -20 5 3 7 15 4 26 -7 28 -13 25 -13 -6z"/>
<path d="M11452 7651 c-11 -7 -11 -9 2 -14 10 -4 16 -1 16 8 0 17 -1 17 -18 6z"/>
<path d="M6340 7555 c1 -26 2 -28 11 -12 8 14 8 22 0 30 -8 8 -11 3 -11 -18z"/>
<path d="M10646 7502 c-13 -21 7 -96 30 -115 13 -10 33 -39 44 -64 23 -52 40
-52 20 -1 -20 54 -54 118 -62 118 -5 0 -8 10 -8 23 0 28 -15 53 -24 39z"/>
<path d="M11432 7450 c0 -14 4 -36 8 -50 8 -24 8 -24 8 5 0 17 -3 39 -8 50 -8
18 -9 18 -8 -5z"/>
<path d="M9647 7428 c6 -35 11 -44 17 -37 7 8 -6 69 -15 69 -5 0 -6 -15 -2
-32z"/>
<path d="M6352 7420 c0 -19 2 -27 5 -17 2 9 2 25 0 35 -3 9 -5 1 -5 -18z"/>
<path d="M10581 7375 c1 -43 2 -46 10 -24 6 16 6 35 0 50 -8 20 -10 16 -10
-26z"/>
<path d="M10661 7285 c0 -16 7 -48 15 -70 l14 -40 -5 53 c-5 60 -25 108 -24
57z"/>
<path d="M11300 7291 c0 -12 5 -21 10 -21 6 0 10 6 10 14 0 8 -4 18 -10 21 -5
3 -10 -3 -10 -14z"/>
<path d="M10607 7205 c2 -100 12 -148 28 -135 24 20 45 -32 45 -112 0 -51 3
-68 10 -58 5 8 10 32 10 53 0 38 13 50 24 21 3 -9 6 -26 6 -39 0 -13 5 -27 11
-31 13 -8 5 67 -13 124 -5 19 -7 53 -3 78 4 27 2 44 -4 44 -16 0 -23 -38 -16
-80 6 -35 4 -39 -10 -34 -28 11 -75 132 -75 195 0 22 -3 39 -7 39 -5 0 -7 -29
-6 -65z"/>
<path d="M10720 7243 c0 -28 10 -53 21 -53 11 0 1 50 -12 65 -5 5 -9 0 -9 -12z"/>
<path d="M11060 7225 c0 -5 5 -17 10 -25 5 -8 10 -10 10 -5 0 6 -5 17 -10 25
-5 8 -10 11 -10 5z"/>
<path d="M11142 7210 c0 -14 2 -19 5 -12 2 6 2 18 0 25 -3 6 -5 1 -5 -13z"/>
<path d="M10780 7181 c0 -6 4 -12 9 -15 4 -3 11 -19 14 -36 8 -35 17 -38 36
-9 12 20 10 24 -16 45 -30 25 -43 29 -43 15z"/>
<path d="M11146 7152 c-2 -4 -1 -23 4 -42 l8 -35 1 43 c1 41 -3 50 -13 34z"/>
<path d="M10420 7088 c0 -50 11 -68 41 -68 33 0 39 16 10 25 -11 3 -22 19 -26
35 -8 35 -25 40 -25 8z"/>
<path d="M10820 7010 c-1 -36 -3 -41 -10 -24 -10 26 -30 40 -30 22 0 -30 22
-88 31 -83 5 4 6 11 3 17 -5 7 -1 9 9 5 14 -5 17 0 16 26 -1 18 -5 43 -9 57
-7 21 -8 18 -10 -20z"/>
<path d="M10540 6927 c0 -12 7 -32 15 -44 8 -12 19 -39 24 -60 l9 -38 1 38 c1
31 -33 127 -45 127 -2 0 -4 -10 -4 -23z"/>
<path d="M10812 6855 c0 -54 15 -122 17 -77 1 12 7 22 16 22 17 0 20 25 5 35
-6 4 -17 21 -24 38 l-14 32 0 -50z"/>
<path d="M10752 6855 c0 -16 2 -22 5 -12 2 9 2 23 0 30 -3 6 -5 -1 -5 -18z"/>
<path d="M10865 6770 c-3 -5 -1 -10 4 -10 6 0 11 5 11 10 0 6 -2 10 -4 10 -3
0 -8 -4 -11 -10z"/>
<path d="M10490 6619 c0 -5 5 -7 10 -4 6 3 10 8 10 11 0 2 -4 4 -10 4 -5 0
-10 -5 -10 -11z"/>
<path d="M11070 12096 c0 -9 5 -16 10 -16 6 0 10 4 10 9 0 6 -4 13 -10 16 -5
3 -10 -1 -10 -9z"/>
<path d="M11121 12014 c0 -11 3 -14 6 -6 3 7 2 16 -1 19 -3 4 -6 -2 -5 -13z"/>
<path d="M9211 7495 c0 -35 1 -37 10 -17 6 15 5 30 -1 40 -7 13 -9 8 -9 -23z"/>
<path d="M6997 7283 c-15 -37 -24 -69 -21 -72 17 -17 82 108 68 131 -11 18
-22 5 -47 -59z"/>
<path d="M8265 7052 c-20 -4 -45 -28 -45 -45 0 -4 9 -5 20 -2 11 4 20 2 20 -4
0 -17 25 -13 43 7 10 10 17 21 17 25 0 11 -35 24 -55 19z"/>
<path d="M8540 7011 c0 -6 5 -13 10 -16 6 -3 10 1 10 9 0 9 -4 16 -10 16 -5 0
-10 -4 -10 -9z"/>
<path d="M7941 6994 c0 -11 3 -14 6 -6 3 7 2 16 -1 19 -3 4 -6 -2 -5 -13z"/>
<path d="M7665 6950 c-6 -9 33 -30 56 -30 19 0 8 21 -17 30 -31 12 -31 12 -39
0z"/>
<path d="M7687 6903 c-17 -16 -5 -33 23 -33 23 0 30 4 30 20 0 14 -7 20 -23
20 -13 0 -27 -3 -30 -7z"/>
<path d="M7706 6423 c-11 -11 -6 -23 9 -23 8 0 15 4 15 9 0 13 -16 22 -24 14z"/>
<path d="M6971 6338 c-1 -21 4 -38 9 -38 11 0 11 14 0 50 -7 22 -8 21 -9 -12z"/>
<path d="M7840 6321 c0 -5 6 -11 13 -14 8 -3 14 1 14 9 0 8 -6 14 -14 14 -7 0
-13 -4 -13 -9z"/>
<path d="M7959 6295 c-3 -2 -16 -6 -30 -8 -15 -3 -25 -11 -27 -25 -2 -12 -12
-27 -23 -33 -11 -5 -25 -22 -30 -37 -10 -26 -11 -26 -24 -8 -12 16 -17 17 -30
6 -8 -7 -15 -20 -15 -29 0 -21 -39 -85 -47 -77 -9 8 -73 -54 -73 -71 0 -7 -7
-13 -15 -13 -8 0 -19 -9 -25 -20 -10 -18 -8 -20 23 -20 26 0 37 6 47 25 9 17
17 22 23 16 7 -7 17 -7 29 0 10 5 22 8 27 5 14 -9 76 13 99 34 18 17 22 18 22
5 0 -19 19 -20 26 0 4 8 15 15 25 15 11 0 16 5 13 14 -3 8 7 18 25 26 17 7 31
18 31 25 0 7 19 30 41 50 33 30 43 46 45 75 2 34 1 37 -22 32 -13 -2 -26 -8
-29 -12 -7 -12 -43 0 -49 16 -5 14 -28 19 -37 9z m-29 -45 c0 -5 -4 -10 -10
-10 -5 0 -10 5 -10 10 0 6 5 10 10 10 6 0 10 -4 10 -10z m50 -54 c0 -17 -90
-92 -167 -140 -9 -5 -13 -1 -13 12 0 12 26 41 68 74 83 67 112 81 112 54z"/>
<path d="M7820 6254 c0 -14 3 -14 15 -4 8 7 15 14 15 16 0 2 -7 4 -15 4 -8 0
-15 -7 -15 -16z"/>
<path d="M8177 6243 c-11 -10 -8 -51 3 -58 6 -3 10 0 10 7 0 7 3 23 6 36 6 21
-5 30 -19 15z"/>
<path d="M8315 6225 c-4 -11 -11 -30 -16 -42 -5 -15 -5 -23 1 -23 15 0 12 -66
-4 -79 -18 -15 -34 5 -17 22 6 6 11 18 11 26 0 11 -4 10 -15 -5 -19 -25 -21
-154 -2 -154 19 0 47 -53 47 -89 0 -17 -10 -66 -21 -109 -12 -42 -25 -97 -29
-121 -4 -24 -14 -49 -22 -55 -22 -17 -42 -57 -43 -91 -1 -16 -5 -50 -9 -75 -6
-33 -5 -42 3 -34 7 6 13 27 15 46 2 20 8 42 15 49 6 8 20 26 32 42 31 41 42
34 36 -20 -4 -27 -9 -61 -13 -77 -5 -21 -3 -27 6 -24 17 5 43 92 30 96 -6 2
-10 16 -10 32 0 22 6 30 30 39 34 11 34 10 19 -34 -10 -26 -8 -36 10 -65 21
-35 21 -35 21 -8 0 40 15 71 54 113 20 20 38 53 42 71 3 19 12 38 19 42 22 13
33 94 22 157 -7 35 -4 44 18 67 23 25 25 34 24 115 -1 113 -6 127 -52 130 -21
1 -37 -2 -37 -7 0 -12 -48 14 -63 34 -7 10 -27 18 -45 18 -19 1 -37 8 -42 17
-8 14 -9 13 -15 -4z m52 -360 c-1 -64 -6 -119 -12 -123 -5 -4 -19 -25 -29 -47
-18 -36 -20 -37 -24 -17 -3 20 12 78 39 150 5 13 9 52 9 87 0 36 4 65 9 65 6
0 9 -48 8 -115z m53 -55 c0 -10 -4 -22 -10 -25 -6 -4 -10 7 -10 25 0 18 4 29
10 25 6 -3 10 -15 10 -25z m-40 -170 c0 -5 -5 -10 -11 -10 -5 0 -7 5 -4 10 3
6 8 10 11 10 2 0 4 -4 4 -10z m10 -30 c0 -5 -4 -10 -10 -10 -5 0 -10 5 -10 10
0 6 5 10 10 10 6 0 10 -4 10 -10z"/>
<path d="M8942 6233 c2 -5 11 -24 20 -43 9 -19 48 -69 87 -110 54 -57 71 -70
71 -54 0 11 -16 35 -35 54 -19 19 -35 39 -35 46 0 6 -10 23 -22 37 -13 14 -31
37 -41 51 -16 23 -55 39 -45 19z"/>
<path d="M8900 6210 c0 -11 7 -20 15 -20 8 0 15 6 15 14 0 8 -7 16 -15 20 -10
4 -15 -1 -15 -14z"/>
<path d="M8136 6195 c-9 -25 -7 -103 3 -109 5 -3 14 7 19 24 6 17 7 32 2 35
-5 3 -7 12 -4 20 3 7 1 21 -4 30 -8 16 -9 16 -16 0z"/>
<path d="M8690 6138 c0 -28 6 -50 15 -58 8 -7 15 -19 15 -26 0 -8 5 -14 10
-14 15 0 12 19 -10 79 -25 70 -30 73 -30 19z"/>
<path d="M8187 6163 c-12 -11 -8 -23 8 -23 8 0 15 7 15 15 0 16 -12 20 -23 8z"/>
<path d="M8570 6160 c0 -5 5 -10 10 -10 6 0 10 5 10 10 0 6 -4 10 -10 10 -5 0
-10 -4 -10 -10z"/>
<path d="M8830 6151 c0 -11 5 -23 10 -26 6 -4 10 5 10 19 0 14 -4 26 -10 26
-5 0 -10 -9 -10 -19z"/>
<path d="M8750 6031 c0 -11 5 -23 10 -26 6 -4 10 5 10 19 0 14 -4 26 -10 26
-5 0 -10 -9 -10 -19z"/>
<path d="M8271 5893 c1 -10 5 -29 9 -43 7 -22 8 -21 9 12 1 20 -3 40 -9 43 -5
3 -10 -2 -9 -12z"/>
<path d="M7534 5546 c-3 -8 -1 -23 5 -33 9 -15 10 -13 11 15 0 34 -7 42 -16
18z"/>
<path d="M8683 5465 c0 -22 2 -30 4 -17 2 12 2 30 0 40 -3 9 -5 -1 -4 -23z"/>
<path d="M8420 5351 c0 -12 5 -21 10 -21 6 0 10 6 10 14 0 8 -4 18 -10 21 -5
3 -10 -3 -10 -14z"/>
<path d="M7960 5320 c0 -16 5 -30 10 -30 6 0 10 14 10 30 0 17 -4 30 -10 30
-5 0 -10 -13 -10 -30z"/>
<path d="M9448 5318 c-3 -7 1 -26 9 -43 l13 -30 -6 40 c-8 46 -10 51 -16 33z"/>
<path d="M8424 5225 c-8 -21 -12 -40 -9 -43 12 -12 38 14 41 41 4 41 -15 43
-32 2z"/>
<path d="M9231 5214 c0 -11 3 -14 6 -6 3 7 2 16 -1 19 -3 4 -6 -2 -5 -13z"/>
<path d="M8641 5204 c0 -11 3 -14 6 -6 3 7 2 16 -1 19 -3 4 -6 -2 -5 -13z"/>
<path d="M6370 6660 c0 -5 5 -10 10 -10 6 0 10 5 10 10 0 6 -4 10 -10 10 -5 0
-10 -4 -10 -10z"/>
<path d="M6481 6624 c0 -11 3 -14 6 -6 3 7 2 16 -1 19 -3 4 -6 -2 -5 -13z"/>
<path d="M10085 2319 c-7 -29 11 -83 24 -74 11 6 3 75 -10 89 -4 5 -11 -2 -14
-15z"/>
<path d="M11070 15093 c0 -21 3 -24 9 -14 5 8 7 20 4 28 -8 21 -13 15 -13 -14z"/>
<path d="M12535 12698 c4 -35 11 -72 15 -83 4 -11 11 -74 15 -141 4 -67 11
-127 15 -135 12 -18 3 266 -9 311 -34 126 -47 144 -36 48z"/>
<path d="M12521 12604 c0 -11 3 -14 6 -6 3 7 2 16 -1 19 -3 4 -6 -2 -5 -13z"/>
<path d="M12594 12515 c6 -23 44 -280 49 -340 2 -24 4 -12 5 30 3 99 -29 297
-51 320 -6 6 -7 3 -3 -10z"/>
<path d="M4701 11514 c0 -11 3 -14 6 -6 3 7 2 16 -1 19 -3 4 -6 -2 -5 -13z"/>
<path d="M5000 9245 c0 -14 5 -25 10 -25 6 0 10 11 10 25 0 14 -4 25 -10 25
-5 0 -10 -11 -10 -25z"/>
<path d="M12042 8530 c0 -14 2 -19 5 -12 2 6 2 18 0 25 -3 6 -5 1 -5 -13z"/>
<path d="M5056 8414 c-8 -31 13 -144 26 -144 6 0 8 10 4 23 -3 12 -6 50 -6 85
0 63 -13 82 -24 36z"/>
<path d="M11994 8206 c-20 -22 -31 -177 -14 -204 8 -13 10 -4 8 36 -1 34 3 56
11 61 8 5 11 27 9 63 -2 42 -6 53 -14 44z"/>
<path d="M11993 7930 c0 -30 2 -43 4 -27 2 15 2 39 0 55 -2 15 -4 2 -4 -28z"/>
<path d="M5205 7700 c3 -5 8 -10 11 -10 2 0 4 5 4 10 0 6 -5 10 -11 10 -5 0
-7 -4 -4 -10z"/>
<path d="M11617 6775 c-8 -19 2 -142 12 -162 9 -17 11 134 2 159 -7 19 -8 20
-14 3z"/>
<path d="M5647 6524 c-8 -8 3 -34 14 -34 11 0 12 27 0 34 -4 3 -11 3 -14 0z"/>
<path d="M11660 6445 c0 -16 5 -37 10 -45 7 -12 10 -8 10 15 0 17 -5 37 -10
45 -7 12 -10 8 -10 -15z"/>
<path d="M9878 3982 c-10 -2 -18 -10 -18 -18 0 -18 8 -18 27 1 18 18 15 23 -9
17z"/>
<path d="M9485 3940 c-3 -5 1 -10 9 -10 9 0 16 5 16 10 0 6 -4 10 -9 10 -6 0
-13 -4 -16 -10z"/>
<path d="M7520 3871 c0 -18 18 -21 30 -6 10 13 9 15 -9 15 -11 0 -21 -4 -21
-9z"/>
<path d="M9280 3840 c0 -5 5 -10 11 -10 5 0 7 5 4 10 -3 6 -8 10 -11 10 -2 0
-4 -4 -4 -10z"/>
<path d="M7875 3820 c-3 -5 -1 -10 4 -10 6 0 11 5 11 10 0 6 -2 10 -4 10 -3 0
-8 -4 -11 -10z"/>
<path d="M9790 3790 c0 -5 5 -10 11 -10 5 0 7 5 4 10 -3 6 -8 10 -11 10 -2 0
-4 -4 -4 -10z"/>
<path d="M9830 3754 c0 -14 3 -14 15 -4 8 7 15 14 15 16 0 2 -7 4 -15 4 -8 0
-15 -7 -15 -16z"/>
<path d="M8156 3724 c-4 -9 -4 -19 -1 -22 2 -3 7 3 11 12 4 9 4 19 1 22 -2 3
-7 -3 -11 -12z"/>
<path d="M8265 3710 c-16 -7 -17 -9 -3 -9 9 -1 20 4 23 9 7 11 7 11 -20 0z"/>
<path d="M8824 3706 c-8 -21 3 -49 16 -41 5 3 10 15 10 25 0 25 -18 36 -26 16z"/>
<path d="M8904 3695 c11 -8 22 -12 25 -9 6 6 -19 24 -34 24 -5 -1 -1 -7 9 -15z"/>
<path d="M7510 3690 c0 -5 5 -10 11 -10 5 0 7 5 4 10 -3 6 -8 10 -11 10 -2 0
-4 -4 -4 -10z"/>
<path d="M8890 3669 c0 -5 5 -7 10 -4 6 3 10 8 10 11 0 2 -4 4 -10 4 -5 0 -10
-5 -10 -11z"/>
<path d="M10241 3474 c0 -11 3 -14 6 -6 3 7 2 16 -1 19 -3 4 -6 -2 -5 -13z"/>
<path d="M7466 3391 c-11 -4 -15 -10 -10 -13 5 -4 18 0 29 8 20 15 12 17 -19
5z"/>
<path d="M7495 3310 c-3 -5 -1 -10 4 -10 6 0 11 5 11 10 0 6 -2 10 -4 10 -3 0
-8 -4 -11 -10z"/>
<path d="M7330 3280 c0 -5 4 -10 9 -10 6 0 13 5 16 10 3 6 -1 10 -9 10 -9 0
-16 -4 -16 -10z"/>
<path d="M9686 3171 c-4 -7 -5 -15 -2 -18 9 -9 19 4 14 18 -4 11 -6 11 -12 0z"/>
<path d="M10026 1975 c4 -8 10 -15 15 -15 5 0 9 7 9 15 0 8 -7 15 -15 15 -9 0
-12 -6 -9 -15z"/>
<path d="M9902 1690 c0 -14 2 -19 5 -12 2 6 2 18 0 25 -3 6 -5 1 -5 -13z"/>
<path d="M8036 1561 c-14 -23 10 -68 68 -126 72 -72 165 -178 191 -218 11 -18
21 -25 28 -18 9 9 -34 115 -50 123 -9 4 -100 120 -126 161 -10 15 -23 27 -29
27 -7 0 -26 14 -44 31 -19 18 -34 27 -38 20z"/>
<path d="M9440 1511 c0 -11 5 -23 10 -26 6 -3 10 -2 10 4 0 5 3 16 6 25 4 11
1 16 -10 16 -9 0 -16 -8 -16 -19z"/>
<path d="M9890 1440 c0 -11 5 -20 10 -20 6 0 10 9 10 20 0 11 -4 20 -10 20 -5
0 -10 -9 -10 -20z"/>
<path d="M9802 1350 c0 -14 2 -19 5 -12 2 6 2 18 0 25 -3 6 -5 1 -5 -13z"/>
<path d="M8330 1186 c0 -16 34 -78 37 -68 6 16 -16 72 -28 72 -5 0 -9 -2 -9
-4z"/>
<path d="M9821 1084 c0 -11 3 -14 6 -6 3 7 2 16 -1 19 -3 4 -6 -2 -5 -13z"/>
<path d="M9950 1060 c0 -16 5 -30 10 -30 6 0 10 14 10 30 0 17 -4 30 -10 30
-5 0 -10 -13 -10 -30z"/>
<path d="M8935 955 c-9 -20 -15 -43 -13 -53 4 -20 50 -31 47 -10 -1 7 1 21 6
31 8 20 -1 67 -14 67 -5 0 -16 -16 -26 -35z"/>
<path d="M9020 931 c0 -6 5 -13 10 -16 6 -3 10 1 10 9 0 9 -4 16 -10 16 -5 0
-10 -4 -10 -9z"/>
<path d="M9906 895 c-9 -24 -8 -45 3 -45 12 0 20 35 11 50 -5 8 -9 7 -14 -5z"/>
<path d="M8885 830 c7 -22 -7 -54 -21 -48 -5 1 -10 -16 -12 -39 -2 -24 1 -43
7 -43 13 0 24 37 16 51 -4 6 2 20 12 32 24 27 28 67 7 67 -11 0 -13 -6 -9 -20z"/>
<path d="M8530 766 c0 -14 5 -26 10 -26 6 0 10 9 10 19 0 11 -4 23 -10 26 -6
4 -10 -5 -10 -19z"/>
<path d="M8767 603 c-4 -3 -7 -11 -7 -17 0 -6 5 -5 12 2 6 6 9 14 7 17 -3 3
-9 2 -12 -2z"/>
<path d="M8806 584 c-4 -9 -4 -19 -2 -21 8 -8 26 8 26 23 0 19 -16 18 -24 -2z"/>
<path d="M9820 531 c0 -11 5 -23 10 -26 6 -4 10 5 10 19 0 14 -4 26 -10 26 -5
0 -10 -9 -10 -19z"/>
<path d="M9773 374 c-3 -8 -1 -25 5 -37 10 -20 11 -18 11 16 1 39 -5 48 -16
21z"/>
<path d="M8941 74 c0 -11 3 -14 6 -6 3 7 2 16 -1 19 -3 4 -6 -2 -5 -13z"/>
<path d="M9010 10 c0 -5 5 -10 11 -10 5 0 7 5 4 10 -3 6 -8 10 -11 10 -2 0 -4
-4 -4 -10z"/>
</g>
</svg>
